<?xml version="1.0" encoding="UTF-8"?> <svg xmlns="http://www.w3.org/2000/svg" id="_Слой_1" data-name="Слой 1" viewBox="0 0 308.23 457.91"><defs><style> .cls-1 { fill: #f4d848; } .cls-1, .cls-2, .cls-3 { stroke-width: 0px; } .cls-2 { fill: #ef92ad; } .cls-3 { fill: #60c923; } </style></defs><path class="cls-3" d="m171.34,148.08c12.35,16.64,25.83,32.35,33.19,52.03,7.2,19.27,10.63,40.24,12.17,60.68,3.12,41.38-2.69,82.98-13.95,122.79-6.42,22.7-14.7,44.76-23.93,66.46-2.06,4.85,4.98,9.15,7.21,4.22,17.8-39.4,30.84-81.34,36.67-124.24,5.63-41.47,4.8-85.96-8.59-125.98-7.6-22.71-21.87-42.18-37.89-59.71-2.33-2.55-6.99.9-4.87,3.76h0Z"></path><path class="cls-3" d="m168.26,451c-14.46-22.74-26.17-46.39-32.69-72.67-6.5-26.18-8.12-53.71-4.47-80.45,2.06-15.04,5.87-29.8,11.21-44-2.46.32-4.92.64-7.38.96,14.33,27.14,24.16,56.54,29.12,86.82,5.01,30.59,4.32,61.24,1.78,92.01-.43,5.26,7.41,5.01,8.06,0,8.12-62.57-2.4-127.11-31.99-182.9-1.76-3.32-6.24-2.07-7.38.96-19.53,52.24-17.04,111.64,5.36,162.58,6.26,14.24,14.09,28.04,23.97,40.1,2.03,2.47,6.11-.74,4.42-3.41h0Z"></path><path class="cls-3" d="m201.58,455.8c68.45-44.58,108.89-123.9,106.55-205.34-.71-24.83-5.27-49.45-13.52-72.87-1.03-2.92-5.9-4.45-7.43-.97-30.49,69.2-41.4,144.52-65.44,215.85-6.83,20.28-14.82,40.14-24.58,59.21-2.41,4.71,4.69,8.87,7.1,4.15,34.51-67.4,46.26-142.8,67.95-214.64,6.2-20.55,13.27-40.83,21.98-60.46-2.48-.32-4.95-.65-7.43-.97,27.1,77.55,11.59,165.18-41.27,228.18-13.65,16.27-29.41,30.76-46.74,43.04-2.89,2.05-.23,6.81,2.82,4.82h0Z"></path><path class="cls-2" d="m104.49,95.18c-9.37-12.42-15.03-27.28-15.96-42.84-.81-13.5.98-32.3,12.48-41.35,6.4-5.04,13.22-2.31,16.16,4.87,2.8,6.83,2.82,14.79,2.99,22.04.44,18.3-1.98,36.45-6.96,54.05,2.66.73,5.33,1.47,7.99,2.2,3.06-16.21,9.68-31.38,20.13-44.22,5.03-6.18,11.06-12.87,18.12-16.73,3.69-2.02,8.2-3.31,12.31-1.7,4.51,1.77,5.66,6.23,6,10.63,2.3,30.05-26.92,58.29-53.28,67.41,1.06,2.52,2.12,5.04,3.19,7.56,11.71-5.32,24.28-8.95,36.73-12.06,12.79-3.19,27.49-7.24,40.62-4.21,13.37,3.09,22.42,15.5,14.95,28.49-7.4,12.87-22.95,15.28-36.5,13.09-17.12-2.77-33.6-10.31-48.09-19.64-1.45,2.49-2.91,4.98-4.36,7.47,13.92,6.83,27.93,15.54,38.53,26.99,4.98,5.38,9.76,12.29,10.1,19.86.33,7.52-4.55,13.7-11.37,16.42-14.52,5.78-29.59-5.31-37.47-16.78-8-11.66-11.91-25.52-15.5-39.03-2.74.76-5.48,1.51-8.22,2.27,5.18,16.91,10.48,34.18,11.19,51.97.32,8,.07,16.69-2.66,24.3-2.1,5.85-7.02,13.51-14.3,10.61-6.93-2.76-10.85-11.81-12.69-18.47-2.02-7.33-2.23-14.99-1.51-22.52,1.66-17.25,8.74-33.56,12.76-50.32,1.31-5.46-7.09-7.79-8.42-2.32-6.29,25.83-36.06,46.74-62.7,38.27-7.62-2.42-12-8.54-11.22-16.59.73-7.59,5.65-13.62,11.84-17.69,14.42-9.48,34.2-11.66,50.95-9.36.4-2.98.81-5.96,1.21-8.94-17.49,1.21-34.96-3.18-49.62-12.87-12.53-8.28-28.71-24.79-20.93-41.25,8.88-18.78,33.83-7.21,46.13.33,15.67,9.6,29.63,21.62,41.7,35.45,3.74,4.28,9.94-1.97,6.23-6.23-11.24-12.89-24.16-24.24-38.45-33.67-13.2-8.71-28.81-17.61-45.21-13.99C5.84,50.11-2.25,64.86.54,80.05c2.78,15.11,15.54,27.08,27.98,34.95,15.71,9.95,34.49,14.54,53,13.01,5.94-.49,5.76-8.39,0-9.11-16.73-2.07-34.33,0-49.72,7.11-12.68,5.86-23.91,17.49-22.92,32.38,1,15.03,13.59,22.07,27.34,23.34,13.35,1.23,27.26-2.86,38.29-10.36,12.47-8.48,21.83-21.09,25.35-35.83-2.81-.77-5.61-1.55-8.42-2.32-6.72,28.47-22.85,61.07-6.23,89.29,6.27,10.65,19.12,18.75,30.18,9.4,10.52-8.9,11.79-25.36,11.5-38.12-.44-19.22-6.03-37.84-11.6-56.08-1.6-5.23-9.63-3.06-8.22,2.27,6.57,24.73,17.31,57,46.14,62.85,12.14,2.47,26.14-1.95,32.18-13.44,6.65-12.66.38-26.4-8.13-36.38-11.04-12.94-26.77-22.78-41.89-30.22-4.98-2.45-9.08,4.43-4.36,7.47,24.34,15.69,71.74,36.46,93.97,6.79,8.86-11.82,8.32-27.88-3.56-37.44-13.33-10.73-31.27-8.5-46.9-5.36-17.37,3.49-34.87,8.36-51.03,15.72-4.24,1.93-1.23,9.1,3.19,7.56,26.29-9.17,51.47-32.73,57.86-60.49,2.81-12.22,2.7-30.59-12.6-33.83-14.86-3.15-27.88,10.66-36.33,21.02-11.23,13.76-19.11,30.26-22.4,47.73-.98,5.18,6.52,7.41,7.99,2.2,4.75-16.77,7.28-34.16,7.29-51.61.01-12.37.61-30.4-10.29-38.96-10.89-8.56-23.57-.39-29.83,9.56-7.43,11.83-9.11,27.89-7.9,41.53,1.48,16.56,7.78,32.05,18.26,44.93,2.59,3.19,8.26-1.11,5.75-4.43h0Z"></path><g><path class="cls-1" d="m108.14,97.46c-11.75,1.12-25.94,11.57-23.03,22.99,2.9,11.42,17.08,18.43,27.94,13.82,10.86-4.61,15.64-19.66,9.42-29.67-3.03-4.87-8.81-8.48-14.41-7.26"></path><path class="cls-1" d="m108.14,94.75c-11.57,1.12-25.64,7.9-27.24,20.88-1.58,12.79,11.29,23.14,22.99,24.11,12.97,1.08,23.48-8.89,25.28-21.4.88-6.16-.39-12.53-4.09-17.59-3.78-5.18-11.58-10.09-18.11-7.35-4.24,1.78-3.65,7.48,1.08,7.98,4.97.53,8.74,1.74,11.3,6.48,1.85,3.42,2,7.54,1.08,11.25-2.04,8.19-9.41,13.77-17.91,12.11-7.13-1.39-15.43-8.22-13.5-16.29,1.93-8.05,12.29-13.74,19.85-14.86,2.99-.45,2.32-5.61-.72-5.32h0Z"></path></g></svg> 