<?xml version="1.0" encoding="UTF-8"?> <svg xmlns="http://www.w3.org/2000/svg" id="_Слой_1" data-name="Слой 1" viewBox="0 0 132.6 45.54"><defs><style> .cls-1 { fill: #60c923; } </style></defs><path class="cls-1" d="M7.1,26.77c2.16-13.77,17.14-22.28,30.28-18.58,6.77,1.9,12.63,6.54,16.46,12.37,3.98,6.06,4.59,13.84,9.17,19.54,8.85,11.03,22.77,3.35,29.09-6.06,4.51-6.72,7.49-14.08,14.61-18.57,6.55-4.13,14.25-5.17,21.73-3.4,4.53,1.07,5.86-5.81,1.44-7.03-14.38-3.95-29.59,2.59-37.68,14.83-4.24,6.42-8.34,17.76-17.47,18.39-8.57.59-10.01-12.96-13.02-18.68C55.32,7.44,41.61-1.42,27.61.19,14.29,1.72,2.16,11.8.05,25.33c-.71,4.57,6.33,6.04,7.05,1.45h0Z"></path></svg> 