<?xml version="1.0" encoding="UTF-8"?> <svg xmlns="http://www.w3.org/2000/svg" id="_Слой_1" data-name="Слой 1" viewBox="0 0 438.34 304.92"><defs><style> .cls-1 { fill: #a8dbf8; } </style></defs><g><path class="cls-1" d="M69.1,95.13c-23.91-4.55-47.88,5.59-60.6,26.58-12.28,20.26-11.16,47.93,2.79,67.1,14.11,19.38,37.49,27.63,60.37,31,27.8,4.09,56.38,3.65,84.4,4.69,33.09,1.23,66.17,2.46,99.26,3.69,29.08,1.08,58.43,2.74,87.31-1.89,25.72-4.13,50.51-13.95,69.12-32.64,16.42-16.49,28.25-39.54,26.4-63.31-3.67-47.01-62.69-75.37-101.99-49.08,2.22,1.28,4.45,2.55,6.67,3.83-4.08-30.7-21-60.64-48.61-75.97-25.93-14.4-57.88-11.51-81.19,6.77-12.28,9.63-21.18,23.34-23.28,38.95h8.56C191.59,21.56,157.16,3.52,125.24,6.22c-30.13,2.55-68.6,20.9-74.8,53.73-3.02,15.96,1.83,32.72,15.16,42.55,4.55,3.35,8.91-4.25,4.42-7.57-9.9-7.34-13.27-20.92-11.06-32.63,2.43-12.93,11.45-23.6,22-30.99,23.5-16.46,57.92-23.33,83.69-8.14,12.69,7.48,22.17,19.5,25.11,34.04.83,4.1,7.98,4.37,8.56,0,3.41-25.27,25.35-42.96,49.5-47.54,27.28-5.18,53.44,9.76,68.91,31.68,9.12,12.93,15.15,28.06,17.23,43.76.4,3.03,3.55,5.92,6.67,3.83,30.32-20.28,78.31-3.14,87.33,32.76,5.3,21.09-2.86,43.04-16.36,59.33-15.26,18.41-36.19,29.29-59.23,34.71-25.52,6.01-52.04,5.6-78.08,4.76-28.83-.93-57.65-2.02-86.47-3.04-28.81-1.02-57.64-1.83-86.45-3.07-21.4-.92-44.29-2.71-63.51-13.05-22.26-11.98-34.56-36.59-28.38-61.57,6.34-25.65,31.91-42.57,57.98-38.74,3.81.56,5.55-5.15,1.63-5.9h0Z"></path><path class="cls-1" d="M65.87,254.19c-8.53,5.8-16.8,13.55-22.13,22.44-4.44,7.42-7.38,20.24,3.09,24.31,8.38,3.25,17.44-5.19,21.38-11.73,5.76-9.57,5.71-21.03,4.37-31.76-.61-4.92-8.42-4.97-7.79,0,.94,7.39,1.5,15.04-.74,22.25-1.64,5.29-6.31,13.18-12.49,14.08-6.2.91-4.54-7.12-3-10.5,1.46-3.22,3.43-6.27,5.62-9.04,4.52-5.72,10.25-10.2,15.23-15.47,2.18-2.31-.69-6.51-3.53-4.58h0Z"></path><path class="cls-1" d="M170.48,240.15c-7.49,5.67-13.52,13.19-17.47,21.74-3.06,6.62-3.7,16.84,4.82,19.74,8.48,2.88,15.03-6.03,18.04-12.7,3.8-8.43,4.42-17.72,2-26.62-1.29-4.73-8.66-2.72-7.36,2.03,1.49,5.45,1.68,11.02.24,16.51-.88,3.36-5.11,15.23-10.32,13.76-9.37-2.64,10.79-27.17,13.37-30.16,1.88-2.18-.68-6.3-3.32-4.3h0Z"></path><path class="cls-1" d="M268.54,264.09c-6.57,6.43-12.63,14.53-15.67,23.3-2.56,7.38-.31,16.17,8.4,17.36,19.84,2.71,20.74-27.89,15.36-39.86-1.7-3.78-8.4-1.02-6.76,2.85,2.42,5.74,2.97,11.7,1.93,17.85-.76,4.49-3.44,13.5-9.79,11.85-9.56-2.49,7.91-26,10.91-29.98,1.94-2.58-2.18-5.51-4.37-3.37h0Z"></path><path class="cls-1" d="M364.29,235.22c-5.8,5.75-11.04,13.29-13.6,21.11-2.06,6.31-.09,14.81,7.61,15.68,6.81.77,12.59-4.73,15.04-10.59,3.39-8.14.94-16.88-1.77-24.84-1.48-4.35-8.41-2.48-6.92,1.91,1.67,4.91,3.53,10.1,3.16,15.36-.27,3.83-2.52,10.23-7.1,10.85-7.49,1.01-1.54-10.49-.15-13.2,2.33-4.55,5.17-8.75,8.06-12.95,1.8-2.62-2.15-5.48-4.32-3.33h0Z"></path><path class="cls-1" d="M82.08,113.98c-10.92-9.94-28.74-6.52-37.25,4.95-9.89,13.32-8.04,33.74,1.13,46.96,24.11,34.77,70.41-11.26,74.12-39.62,2.29-17.55-9.86-29.58-26.54-31.85-17.02-2.31-37.1,2.58-49.83,14.43-12.35,11.51-17.44,30.77-6.93,45.18,10.24,14.04,29.36,14.35,41.5,2.48,12.48-12.21,12.37-32.3-.36-44.17-12.19-11.38-30.22-12.02-43.77-2.59-15.04,10.47-21.01,28.62-18.12,46.34,2.68,16.47,13.46,35.24,30.75,39.59,16.2,4.07,29.86-8.52,32.8-23.86,3.11-16.24-5.16-35.14-22.03-39.66-18.2-4.87-32.66,10.82-33.9,27.98-1.24,17.22,7.96,35.38,22.43,44.72,16.78,10.83,38.15,6.6,54.92-1.95,16.19-8.25,29.79-22.74,32.25-41.3,1.01-7.64.57-17.66-5.16-23.53-5.6-5.73-14.64-6.26-21.94-4.06-15.01,4.53-25.25,19.07-27.99,34.04-2.86,15.62,1.35,35.07,16.65,42.84,16.16,8.22,36.03,1.57,49.96-8.1,14.57-10.11,29.67-27.53,27.29-46.56-2.22-17.78-19.15-27.83-35.67-20.56-13.45,5.91-21.43,20.46-21.79,34.81-.38,15.52,9.07,29.31,22.74,36.18,32.3,16.24,68.31-8.89,72.75-42.81,2.14-16.34-7.54-36.87-26.92-33.75-19.03,3.06-25.51,23.7-24.07,40.49,1.38,16.16,8.5,33.23,24.39,39.83,17.59,7.3,36.63-.18,49.98-12.3,12.62-11.46,25.52-30.39,19.36-48.24-6.41-18.56-28.64-15.42-39.69-3.02-12.01,13.47-12.47,34.89-5.11,50.72,8.26,17.78,26.18,22.28,44.32,19.59,18.11-2.69,36.52-11.88,44.48-29.23,6.39-13.92,5.77-37.77-11.98-43.21-15.54-4.76-29.79,8.56-35.03,21.93-5.84,14.89-3.44,32.27,6.21,45.03,10.78,14.27,28.11,17.81,43.99,9.85,16.13-8.09,29.07-24.81,35.05-41.61,2.53-7.12,3.61-15.9-.08-22.84-3.93-7.38-12.26-10.3-20.23-9.12-16.05,2.38-26.84,19.17-25.35,34.77,1.58,16.54,15.55,30.16,31.56,33.29,18.09,3.54,36.49-4.24,48.62-17.65,11.43-12.63,22.46-33.76,16.58-51.08-5.87-17.28-25.64-21.88-39.36-10.21-12.23,10.41-16.92,31.47-10.86,46.26,7.2,17.58,27.32,16.76,40.94,7.08,13.66-9.71,22.38-26.6,21.12-43.48-1.24-16.61-11.23-32.32-26.01-40.17-17.58-9.33-39.01-6.68-57.53-1.9-18.34,4.73-38.73,12.84-52.81,25.9-13.05,12.1-13.15,30.76-.71,43.45,12.98,13.24,34.03,14.19,51.21,11.38,17.39-2.84,38.38-11.27,48.54-26.51,9.58-14.38,3.84-33.71-8.04-44.87-14.16-13.29-34.81-16.3-53.38-17.83-20.53-1.7-42.9-1.54-62.77,4.54-16.8,5.15-32.72,16.4-38.46,33.67-4.96,14.95.19,33.54,14.42,41.46,15.73,8.76,35.81,3.01,50.63-4.95,15.18-8.15,28.24-21.78,31.78-39.08,3.37-16.42-1.67-33.67-15.49-43.75-13.52-9.86-31.57-11.04-47.73-10.57-19.64.56-40.37,3.05-57.1,14.22-13.97,9.33-24.37,24.2-24.02,41.5.35,16.99,11.09,31.7,27.89,35.61,16.45,3.82,34.25-1.75,47.6-11.52,14.06-10.29,24.14-26,23.92-43.85-.21-17.56-10.49-32.13-26.34-39.25-16.28-7.31-35.6-8.32-53.19-7.79-18.95.58-38.21,5.18-52.5,18.32-12.32,11.32-18.16,27.79-14.24,44.22,3.92,16.42,16.8,29.13,33.2,32.98,33.23,7.8,74.31-15.17,79.7-50.12,2.59-16.79-2.73-34.47-16.43-45.1-13.54-10.51-32.41-13.07-48.99-10.38-14.86,2.41-30.33,11.42-32.13,27.74-1.89,17.18,12.6,31.66,29.7,30.21,5.55-.47,5.6-9.2,0-8.72-14.71,1.24-26.42-13.76-18.74-27.41,6.13-10.89,20.9-13.78,32.33-13.85,13.36-.07,27.82,3.48,37,13.83,8.59,9.68,10.76,24,7.6,36.29-6.75,26.28-37.64,43.45-63.71,39.81-13.4-1.87-24.86-10.1-29.63-22.95-4.54-12.23-2.28-25.48,6.05-35.53,18.78-22.67,53.75-22.88,80.47-18.86,12.07,1.82,24.86,5.59,33.13,15.13,9.33,10.75,9.83,27.06,3.69,39.49-10.52,21.31-43.73,39.57-65.97,24.64-11.1-7.45-13.78-22.46-9.87-34.58,4.09-12.68,15.28-21.97,27.06-27.32,14.38-6.53,30.79-7.78,46.38-8,12.43-.17,25.95.71,36.89,7.2,11.59,6.87,16.78,19.65,15.35,32.81-1.48,13.54-10.06,25.06-21,32.71-10.86,7.6-25.13,13.56-38.61,12.44-14-1.16-22.81-12.68-22.36-26.36.45-13.77,10.91-25,22.48-31.2,13.76-7.37,30.09-8.91,45.43-9.43,15.82-.54,32.18.2,47.66,3.73,13.5,3.08,27.19,9.36,33.43,22.5,14.72,30.99-31.86,46.61-54.67,47.15-13.85.33-30.17-3.21-36.75-16.86-7.04-14.6,5.04-25.15,16.56-32.03,13.32-7.95,27.86-13.67,43.01-16.99,14.7-3.22,31.76-5.09,45.59,2.25,24.79,13.17,28.61,47.07,7.99,65.8-9.55,8.67-27.22,13.79-32.03-2.2-3.52-11.71.63-28.71,11.18-35.63,5.84-3.83,13.72-4.4,18.88.83,5.3,5.37,5.89,13.39,4.43,20.42-2.8,13.52-11.19,27.07-22.23,35.38-11.28,8.49-27.38,12.21-40.51,5.8-11.76-5.74-19.88-18.68-16.11-31.83,1.69-5.91,5.59-11.37,11.04-14.34,5.44-2.96,14.05-3.66,17.27,2.86,5.67,11.51-5.83,28.43-12.8,36.85-8.61,10.4-22.34,21.97-36.9,18.63-12.57-2.89-20.66-16.1-22.37-28.17-1.57-11.07,1.99-24.35,10.91-31.61,4.67-3.8,12.25-6.64,17.92-3.45,6.09,3.43,8.15,11.69,7.93,18.18-.5,14.7-11.33,26.23-24.14,32.03-12.35,5.59-31.35,9.27-43.33,1.09-11.54-7.89-14.7-25.43-11.98-38.27,1.49-7.05,5.13-13.72,11.15-17.87,5.63-3.88,14.74-6.16,19.21.53,8.37,12.54-3.19,29.69-11.74,38.67-9.92,10.43-23.85,18.84-38.78,16.07-14.09-2.62-21.55-15.07-24.08-28.24-2.48-12.94-1.14-31.81,13.63-36.74,6.74-2.25,13.17.86,16.76,6.78,4.18,6.88,3.52,15.62,1.46,23.08-3.38,12.22-11.59,23.16-22.7,29.37-20.78,11.61-53.64.47-54.4-26.03-.31-10.91,4.94-22.48,14.71-27.92,6.35-3.54,14.28-4.26,19.86.97,4.9,4.59,6.69,11.49,5.78,17.99-2.07,14.81-14.93,27.46-27.2,34.82-11.14,6.68-27.22,11.92-39.26,4.4-11.71-7.31-13.44-24.22-10.07-36.43,3.12-11.33,11.7-22.89,24-24.89,18.54-3,15.43,21.19,10,31.76-6.65,12.95-19.66,21.68-33.12,26.41-14.42,5.07-30.67,5.33-42.42-5.68-10.15-9.51-16.59-25.89-12.47-39.62,4.61-15.34,22.96-19.86,33.25-6.91,7.96,10.01,7.79,26.2-1.12,35.57-10.65,11.22-25.67,2.5-32.92-7.96-8.31-11.99-11.52-28.76-6.22-42.58,4.65-12.12,16.93-22.11,30.3-21.51,13.13.58,25.93,12.73,23.78,26.42-2.18,13.89-18.73,26.14-31.88,17.22-12.6-8.55-11.2-25.85-2.56-36.63,9.08-11.33,24.65-16.26,38.74-16.82,13.04-.52,28.88,4.17,29.36,19.73.45,14.5-10.23,28.36-20.49,37.55-10.42,9.34-27.16,19.41-38.98,6.64-8.67-9.37-11.79-25.45-6.79-37.24,4.74-11.18,20.16-18.44,30.37-9.48,2.87,2.52,7.09-1.62,4.22-4.22h0Z"></path><path class="cls-1" d="M151.66,52.19c-3.6,5-6.58,10.29-8.99,15.96-1.22,2.86.14,6.44,3.69,6.43,9.78-.03,20.24-2.45,27.66-9.18,7.99-7.25,9.17-18.42,4.54-27.89-9.92-20.31-39.19-29.16-59.44-20.57-9.75,4.14-17.13,13-16.58,24.01.52,10.51,7.26,19.79,16.61,24.33,18.27,8.86,52.79,2.04,46.68-24.42-5.22-22.61-30.29-33.26-51.45-28.98-22.34,4.52-42.32,23.69-37.43,47.88,4.29,21.21,29.9,33.63,48.67,21.98,18.83-11.7,20.16-39.64.48-51.37-19.44-11.59-45.88,3.24-54.62,21.8-9.87,20.95-1.04,45.32,19.08,56.13,9.76,5.25,20.78,7.5,31.71,8.66,13.43,1.43,27.18,1.47,40.6-.09,24.13-2.79,47.62-11.23,65.7-27.88,8.06-7.43,15.06-16.54,19.35-26.67,1.74-4.11,2.85-8.99.12-12.97-2.91-4.23-8.84-5.1-13.26-2.86-9.36,4.75-11.51,19.94-10.35,29.24,1.26,10.14,7.63,18.54,17.48,21.68,20.24,6.45,43.47-8.01,54.49-24.32,11.88-17.59,10.48-43.94-8.28-56.29-17.96-11.83-44.77-5.65-61.65,5.34-8.85,5.76-15.73,14.35-16.5,25.18-.71,9.84,3.76,20.05,11,26.65,16.29,14.87,42.86,9.5,55.99-6.87,13.28-16.55,12.27-43.01-8.58-52.9-21.36-10.13-39.25,9.02-41.25,29.44-1.13,11.51,2.08,23.86,10.51,32.1,7.91,7.72,19.15,11.42,30.07,11.44,12.36.03,24.61-4.21,35.51-9.77,9.53-4.87,18.54-13.06,17.89-24.69-.6-10.75-10.42-17.17-20.65-15.15-10.62,2.1-16.74,11.88-19.16,21.73-2.76,11.23-2.49,24.38,3.88,34.39,5.64,8.88,16.15,15.22,26.88,13.52,9.49-1.5,17.85-9.89,18.37-19.67.59-11.03-9.59-19.78-19.99-14.01-18.57,10.3-15.17,38.93-.48,50.8,16.42,13.27,46.11,10.67,58.43-7.27,3.01-4.38,4.43-9.7,3.68-14.98-.66-4.59-3.43-10.96-9.06-10.5-10.86.89-9.95,17.41-6.81,24.32,9.64,21.19,38.48,17.76,50.41.69,6.6-9.44,4.02-20.89-4.78-27.88-9.59-7.62-22.02-6.65-33.1-3.24-10.47,3.22-23.67,7.57-20.67,21.2,2.19,9.98,10.83,18.56,19.19,23.83,8.39,5.29,18.36,8.19,28.27,8.23,8.39.03,23.13-1.59,25.12-11.74,1.86-9.49-6.07-21.77-13.05-27.47-7.82-6.39-18.37-7.39-26.89-1.66-18.66,12.56-16.73,45.86-3.79,61.81,6.17,7.61,16.02,11.85,25.81,10.32,10.22-1.6,17.72-10.16,17.62-20.6-.1-10.64-8.05-18.89-18.35-20.6-10.99-1.82-21.51,3.64-28.91,11.49-7.85,8.33-12.84,19.84-11.38,31.4,1.25,9.89,7.28,19.36,16.46,23.63,9.52,4.44,21.43,1.91,24.86-8.91,3.25-10.24-2.9-20.24-12.01-24.86-18.97-9.61-44.81-.65-53.93,18.55-4.32,9.09-3.75,21.52,5.84,27.11,7.77,4.53,18.3.45,20.25-8.47,1.03-4.71-6.2-6.72-7.24-2-.71,3.22-4.09,5.13-7.29,4.18-4.66-1.38-6.31-7.28-5.68-11.53,1.13-7.63,7.39-14.26,13.78-18.05,6.25-3.71,13.72-5.55,20.98-4.73,6.85.77,16.04,4.52,17.29,12.25,1.56,9.58-8.03,11.85-14.93,7.6-6.45-3.97-10.08-11.74-9.96-19.19.22-14.56,14.94-33.17,30.95-29.8,7.79,1.64,12.66,9.23,9.51,16.89-2.88,6.98-11.17,8.24-17.66,6.13-15.38-5-18.61-26.92-15.96-40.63,1.44-7.47,6.11-15.65,14.35-16.83,7.52-1.08,13.43,5.04,16.83,11.04,1.57,2.77,3.39,6.32,3.62,9.56.28,4.01-4.74,4.56-7.93,5.24-6.8,1.45-13.96.92-20.61-1.05-6.69-1.98-12.95-5.53-17.96-10.4-4.03-3.91-13.01-14.22-5.82-18.84,3.56-2.28,8.56-3.44,12.58-4.64,4.48-1.33,9.09-2.33,13.79-2.05,7.2.42,16.91,6.17,15.56,14.62-1.18,7.38-9.93,13-16.59,14.64-7.15,1.75-14.62-.24-18.9-6.47-1.69-2.46-2.8-5.44-2.87-8.44-.03-1.22.95-3.34.7-4.37.08-.21.15-.43.23-.64-1.94-1.69-2.46-1.8-1.57-.35-.13,1,.92,3.09.89,4.3-.2,8.66-9.58,14.24-16.87,16.61-13.68,4.44-31.29.93-37.53-13.36-2.57-5.88-3.1-12.99-.65-18.99,1.27-3.11,3.58-6.74,6.76-8.18,4.85-2.2,7.1,2.82,6.36,6.98-1.39,7.77-9.9,11.73-17.03,9.65-7.92-2.3-12.99-9.38-14.82-17.13-1.84-7.81-1-16.95,2.11-24.35,2.61-6.21,9.95-13.58,17.24-9.29,8.12,4.77.89,15.48-4.23,19.14-6.56,4.67-14.72,7.82-22.43,9.94-15.1,4.15-34.95,2.39-43.02-13.15-6.53-12.57-4.09-34.17,9.84-41.12,14.39-7.18,28.91,7.72,28.2,21.83-.79,15.65-14.36,28.49-29.67,29.97-14.42,1.4-28.27-8.73-28.69-23.84-.43-15.68,16.46-23.94,29.31-27.75,13.81-4.1,31.93-4.8,41.52,8.03,19.4,25.95-13.07,63.38-41.52,59.54-7.05-.95-12.59-5.38-14.37-12.38-.93-3.67-.84-7.61-.15-11.32.56-3.02,1.58-9.03,4.36-10.85,5.06-3.33.35,6.32-.44,7.8-1.77,3.28-3.78,6.45-6.04,9.43-4.65,6.13-10.36,11.58-16.56,16.12-27.47,20.1-65.89,24.11-98.77,18.59-14.36-2.41-29.82-8.08-36.58-22.04-6.99-14.42-2.26-31.74,10.02-41.59,11.94-9.59,31.91-12.53,39.87,3.39,7.06,14.11-4.93,30.62-20.21,30.38-16.13-.25-26.86-16.24-23.14-31.38,3.94-16.04,22.15-25.6,37.72-25.92,14.6-.31,31.94,9.48,33.51,25.42,1.77,18.01-28.03,16.55-37.55,9.58-5.84-4.28-9.77-12.47-7.27-19.63,2.46-7.06,10.14-10.68,17.03-11.92,15.13-2.71,36.72,4.64,42.31,20.26,5.67,15.85-13.37,22.31-25.48,22.37,1.23,2.14,2.46,4.29,3.69,6.43,2.4-5.68,5.37-10.97,8.97-15.98,3.2-4.46-4.18-8.71-7.35-4.3h0Z"></path><path class="cls-1" d="M292.18,77.19c-11.48-17.07-23.23-33.78-39.74-46.38-1.42-1.08-4.08-.31-4.81,1.26-4.15,8.86.04,19.84,8.89,24.04,10.52,5,21.93-3.73,14.92-14.78-6.06-9.57-17.97-13.21-28.53-14.78-14.37-2.14-29.2-2.81-43.23,1.55-21.44,6.67-49.25,22.55-54.4,46.44-5.89,27.29,17.55,48.24,40.88,56.49,29.4,10.41,64.83,5.8,92.8-7,3.57-1.64,1.02-7.28-2.64-6.25-20.83,5.81-41.23,11.63-63.13,10.36-20.21-1.17-43.75-8.77-55.2-26.7-5.51-8.63-7.65-19.3-4.16-29.1,3.26-9.17,10.64-16.43,18.38-22.01,8.2-5.9,17.42-10.98,26.98-14.26,11.45-3.94,22.99-4.15,34.94-3,9.67.93,21.46,2.25,28.61,9.63,1.99,2.05,5.2,6.87.3,7.5-2.09.27-4.51-1.17-6-2.5-3.79-3.37-4.78-8.29-2.97-12.91-1.72.7-3.44,1.4-5.17,2.1,16.14,10.95,27.34,27.44,38.14,43.32,2.15,3.16,7.32.19,5.16-3.02h0Z"></path><path class="cls-1" d="M185.52,115.83c-.8,2.52-1.59,5.04-2.39,7.57,1.91.53,3.83,1.05,5.74,1.58,5.01-17.16,9.35-36.99-2.65-52.25-1.33-1.7-4.45-1.11-5.37.69-13.13,25.6-16.74,54.52-10.9,82.63.66,3.2,5.09,3.37,6.65.87,18.01-28.85,20.17-65.48,6.11-96.38-1.02-2.23-4.34-2.34-5.9-.76-22.6,22.93-26.73,56.56-26.48,87.31.03,3.76,5.48,5.54,7.33,1.98,18.31-35.17,19.11-77.4,2.56-113.37-.95-2.06-3.59-2.2-5.35-1.4-15.22,6.86-17.69,28.23-20.94,42.53-4.53,19.94-7.3,40.36-3.04,60.6.77,3.64,5.5,3.57,7.32.96,21.39-30.76,24.39-71.91,8.38-105.65-1.2-2.52-4.52-2.35-6.32-.81-12.94,10.98-17.02,29.72-20,45.64-1.72,9.2-2.82,18.53-3.22,27.88-.26,5.92-1.57,16.01,5.68,18.56,7.32,2.57,11.68-5.53,14.17-10.95,3.66-7.96,6.08-16.35,7.25-25.03,1.11-8.23,1.04-16.49-.16-24.71-1.11-7.63-2.91-16.45-7.09-23.07-4.07-6.46-10.99-7.86-17.21-3.39-6.09,4.38-9.81,11.25-12.64,18.02-7.25,17.32-11.45,35.98-12.98,54.66-.49,6.03-2.03,15.43,4.49,18.97,7.08,3.84,12.62-3.58,15.51-9.04,7.67-14.49,10.98-31.33,9.5-47.65-.77-8.47-2.68-16.78-5.92-24.65-2.5-6.08-5.98-14.12-13.65-14.41-7.41-.28-11.83,6.84-14.88,12.56-4.14,7.77-7.48,16.02-9.91,24.48-4.77,16.62-6.11,34.22-3.86,51.37.82,6.23,1.59,15.15,8.27,18.08,7.04,3.09,12.17-4.65,15.18-9.85,8.35-14.41,8.77-32.05,4.29-47.77-2.5-8.79-13-41.71-26.9-29.52-5.8,5.09-8.02,14.77-10.18,21.84-2.63,8.58-4.47,17.38-5.6,26.28-1.2,9.4-1.59,18.9-1.07,28.37.43,7.87.72,17.12,3.64,24.52,2.18,5.54,7.77,9.85,13.78,6.69,6.29-3.3,8.5-12.45,9.79-18.78,1.68-8.28,1.69-16.76.11-25.06-1.37-7.2-4.02-15.81-8.98-21.42-4.46-5.05-11.36-5.91-16.43-1.18-5.6,5.22-8.24,14.18-10.66,21.21-6.04,17.53-8.58,36.66-6.9,55.15.57,6.23,2.29,12.65,8.91,14.67,1.67.51,4-.31,4.79-1.95,4.62-9.59,6.07-20,4.24-30.5-1.57-9.07-6.38-21.37-15.03-25.92-10.71-5.63-15.79,8.34-17.37,16.37-2.22,11.29-.42,22.76,5.06,32.87,2.17,4.01,7.48,1.72,7.88-2.13,1.29-12.34-5.88-24.65-17.3-29.53-2.89-1.24-6.24.17-6.34,3.64-.37,13.43,1.93,27.52,10.23,38.47,7.34,9.68,19.58,16.22,31.9,14.74,11.69-1.4,21.92-10.51,24.6-22.02,2.76-11.82-2.48-23.68-12.09-30.67-2.19-1.59-5.51.08-6.12,2.49-3.26,12.8-1.98,26.27,3.88,38.14,4.8,9.71,14.52,20.61,26.59,17.07,9.96-2.92,14.61-14.25,15.36-23.72,1.05-13.45-3.74-26.57-11.94-37.07-2.05-2.63-6.07-.82-6.93,1.83-3.9,11.97-3.43,25.04,1.43,36.67,4.09,9.78,13.17,22.98,25.62,19.6,9.86-2.68,13.67-14.63,13.23-23.78-.63-12.99-6.69-25.36-15.47-34.75-1.96-2.1-6.51-1.3-6.96,1.84-2.13,14.78.21,29.73,7.43,42.89,5.84,10.64,18.74,24.92,31.76,15.67,10.51-7.47,11.15-24.38,9.52-35.87-1.95-13.76-8.7-26.6-19.03-35.9-2.21-1.99-6.04-1.31-6.82,1.8-3.53,13.94-2.93,28.79,1.92,42.35,2.41,6.74,5.74,13.13,10.03,18.87,3.91,5.23,8.83,10.84,15.7,11.76,15.5,2.07,21.29-15.28,20.61-27.55-.84-15.26-6.89-29.54-16.77-41.13-1.22-1.43-3.28-1.32-4.81-.62-13.02,5.93-7.5,27.46-4.24,37.6,3.83,11.91,11.57,30,26.21,30.94,14.91.96,23.59-13.65,24.03-26.85.5-15.03-6.39-29.74-17.26-39.89-2.17-2.03-5.88-1.22-6.69,1.77-3.76,13.93-3.05,28.88,2.2,42.34,4.28,10.97,14.07,29.02,27.84,29.04,14.63.02,20.75-17.69,22.25-29.54,1.87-14.84-1.99-30.11-10.73-42.25-1.79-2.48-6.81-2.84-7.42.97-2.41,15.08-.88,30.41,4.89,44.58,2.77,6.79,6.36,13.12,10.83,18.93,3.74,4.86,8.23,10.02,14.97,9.2,13.53-1.66,15.99-20.48,15.64-31.09-.48-14.63-6.17-28.51-15.8-39.47-2.62-2.99-6.58-.26-6.99,2.89-2,15.31.49,30.8,6.9,44.83,4.47,9.8,14.74,29.3,28.31,22.78,12.06-5.79,13.61-22.51,12.48-34.14-1.42-14.55-7.45-28.05-17.35-38.8-2.67-2.9-6.58-.33-6.99,2.89-1.72,13.6-.41,27.52,3.87,40.55,3.81,11.59,10.16,25.48,19.7,33.51,10.37,8.72,20.99-4.09,24.85-13.28,4.62-10.97,4.55-23.43,3.39-35.08-1.42-14.18-4.91-28.71-15.65-38.82-2.13-2-6.15-1.32-6.83,1.8-3.1,14.19-2.98,28.85.51,42.96,1.76,7.12,4.4,14.06,7.77,20.57,2.92,5.65,6.59,12.68,11.79,16.56,12.46,9.31,21.95-7.28,24.68-17.37,3.98-14.71,4.43-30.25,1.68-45.22-1.4-7.62-3.74-15.02-6.85-22.11-2.18-4.96-4.87-12.33-11.44-12.16-13.72.36-10.98,25.86-10.3,34.16,1.3,15.66,5.56,30.99,12.67,45.01,2.76,5.45,6.73,11.64,12.89,13.64,6.29,2.04,11.54-1.43,14.95-6.55,17.72-26.58,16.52-64.04.39-90.9-1.68-2.8-5.25-2.42-7,0-8.17,11.28-8.37,25.74-6.8,39.04,1.82,15.4,5.42,31.53,12.28,45.55,2.35,4.8,6.29,9.99,11.67,11.53,5.76,1.65,10.68-1.67,13.63-6.42,7.35-11.82,10.89-26.68,11.94-40.42,1.24-16.33-1.74-32.57-8.23-47.56-1.17-2.7-5.99-2.73-7.14,0-5.9,13.91-8.27,28.87-6.42,43.91.88,7.18,2.62,14.18,5.33,20.89,2.2,5.43,5,11.43,10.58,14.09,12.67,6.02,21.8-12.09,25.48-21.29,5.18-12.98,5.91-27.37,2.34-40.86-.98-3.72-5.69-3.84-7.67-1-6.11,8.75-8.48,19.63-6.45,30.13,1.63,8.43,9.31,16.48,17.05,8.29,13.44-14.22,13.88-38.1,3.54-54.03-1.68-2.58-5.68-2.88-7.29,0-7.04,12.58-6.25,28.52,2.57,40.05,1.74,2.28,5.75,3.16,7.3,0,5.65-11.51,7.66-24.25,5.82-36.95-1.59-10.99-6.54-25.95-16-32.77-11.97-8.65-21.75,7.89-26.17,16.84-6.37,12.88-9.48,27.04-9.18,41.4.1,4.64,7.25,5.93,8.32,1.13,2.6-11.6,2.34-23.7-1.21-35.08-2.46-7.9-7.93-23.97-18.68-22.24-10.28,1.65-15.87,15.7-18.28,24.44-3.01,10.88-2.71,22.48.74,33.21,1.35,4.2,6.69,3.83,8.18,0,4.11-10.57,4.38-22.46.92-33.26-1.68-5.26-4.18-10.24-7.49-14.67-2.85-3.82-6.89-9.1-12.19-9.01-5.34.1-8.83,5.42-11.44,9.41-3.07,4.7-5.39,9.99-6.86,15.4-3.13,11.45-2.59,23.75,1.68,34.82,1.57,4.08,6.62,3.98,8.23,0,6.24-15.42,8.53-32.34,6.63-48.88-.91-7.92-2.61-15.71-5.33-23.21-2.54-7-5.68-15.65-11.02-21.02-14.24-14.3-22.99,16.22-25.56,25.46-4.74,17.05-5.44,34.85-2.55,52.28.75,4.54,6.89,3.49,8.18,0,11.48-30.97,11.14-66.19-1.57-96.75-2.24-5.4-6.08-10.91-12.83-9.2-7.03,1.79-10.46,9.49-13.09,15.46-6.49,14.74-10.76,30.25-12.8,46.22-2.4,18.76-1.46,37.75,2.52,56.23.54,2.5,4.07,4.11,6.24,2.54,13.56-9.82,17.47-27.33,19.36-43.07,2.27-18.87.14-38.13-6.01-56.1-1.77-5.18-10.04-2.96-8.25,2.28,5.33,15.61,7.58,31.99,6.3,48.46-1.06,13.65-3.7,32.41-15.69,41.1,2.08.85,4.16,1.69,6.24,2.54-3.7-17.16-4.51-34.81-2.44-52.25,1.05-8.79,2.91-17.5,5.43-25.98,2.43-8.17,5.24-17.13,9.66-24.47.73-1.21,3.03-5.15,4.9-4.77,1.39.28,2.14,2.97,2.62,4.08,1.83,4.26,3.28,8.72,4.54,13.18,2.43,8.59,3.95,17.41,4.49,26.32,1.06,17.72-1.63,35.3-7.8,51.93h8.18c-2.35-14.15-1.94-28.72,1.28-42.7,1.61-6.99,3.84-13.86,6.79-20.4.97-2.15,2.57-7.95,5.31-6.92,2.32.87,4.23,6.34,5.28,8.41,12.08,23.81,12.71,52.34,2.76,76.96h8.23c-3.1-8.02-4.2-16.61-2.82-25.13.7-4.33,1.96-8.64,3.82-12.62,1.16-2.49,4.38-9.98,7.25-10.67,2.47-.59,6.69,6.63,7.87,8.63,2.19,3.71,3.77,7.72,4.76,11.92,2,8.46,1.23,17.13-1.9,25.2h8.18c-2.51-7.8-3.26-16.01-1.8-24.11,1.25-6.96,4.3-17.17,10.22-21.73,4.14-3.18,6.62,3.63,8.17,6.71,2.07,4.13,3.56,8.54,4.58,13.04,1.93,8.49,1.82,17.27-.08,25.76,2.77.38,5.55.75,8.32,1.13-.23-10.68,1.52-21.19,5.39-31.17,2-5.15,4.59-10.17,7.68-14.75,1.31-1.93,2.88-4.42,5.04-5.52,3.24-1.66,5.16,1.18,6.91,3.58,11.53,15.73,13.25,37.63,4.72,55.08h7.3c-7.03-9.18-8.28-21.34-2.59-31.53h-7.29c7.09,10.92,8.17,25.23,2.29,36.97-.87,1.73-3.07,6.9-4.94,7.34-1.33.31-1.55-1.18-2.01-2.77-.55-1.91-.84-3.88-.95-5.86-.41-7.3,1.84-14.14,6-20.09-2.56-.33-5.12-.67-7.67-1,2.66,10.03,2.62,20.46-.26,30.44-1.6,5.57-10.94,29.25-18.55,19.59-6.34-8.05-8.52-21.11-9.05-31.04-.62-11.53,1.29-23.12,5.79-33.78h-7.14c5.91,13.64,8.23,28.59,7.14,43.39-.55,7.37-2.06,14.68-4.37,21.7-1.23,3.73-5.3,18.51-10.79,17.24-6.34-1.47-9.21-13.44-10.92-18.49-2.6-7.65-4.61-15.5-6-23.47-2.42-13.89-4.16-30.08,4.59-42.17h-7c11.18,18.57,14.26,41.32,8.59,62.25-1.35,4.99-3.16,9.84-5.5,14.45-2.61,5.13-6.23,12.56-12.27,6.68-3.62-3.52-5.76-8.76-7.75-13.3-2.69-6.13-4.77-12.55-6.31-19.06-2.69-11.35-3.59-23.18-2.58-34.81.1-1.12.26-6.25,1.79-6.74,1.99-.64,3.47,4.3,4.15,5.78,2.45,5.35,4.3,11,5.66,16.72,2.72,11.41,3.31,23.43,1.63,35.05-.7,4.87-6.11,32.19-15.24,22.89-8.16-8.31-13.08-21.54-15.71-32.62-2.96-12.43-3.04-25.36-.31-37.83-2.28.6-4.56,1.2-6.83,1.8,9.87,9.29,12.49,23.11,13.52,36.09.9,11.47.99,25.17-6.32,34.79-2.05,2.69-5.35,6.84-8.78,4.27-2.54-1.91-4.54-5.24-6.3-7.81-4.11-5.98-7.49-12.48-9.94-19.31-4.69-13.09-6.11-26.91-4.37-40.69-2.33.96-4.66,1.93-6.99,2.89,7.58,8.23,12.62,18.47,14.48,29.52,1.43,8.48,2.44,25.19-6.92,30.03-5.51,2.85-10.17-5.54-12.68-9.37-3.21-4.91-5.84-10.2-7.77-15.74-3.93-11.27-5.03-23.09-3.48-34.9-2.33.96-4.66,1.93-6.99,2.89,7.3,8.31,11.96,18.81,13.13,29.83.56,5.24.42,10.66-.67,15.82-.83,3.92-3.95,12.72-9.49,10.7-4.33-1.58-8.16-9.12-10.36-12.82-2.83-4.75-5.12-9.8-6.8-15.06-3.53-11.04-4.54-22.77-2.72-34.24-2.47.32-4.95.65-7.42.97,6.95,9.64,10.53,21.06,10.1,32.97-.29,7.9-4.29,29.62-16.42,26.37-5.24-1.41-9.51-7.43-12.37-11.71-3.19-4.77-5.7-9.94-7.42-15.41-3.46-11.01-3.72-22.65-.72-33.78-2.23.59-4.46,1.18-6.69,1.77,8.01,7.47,13.45,17.37,14.72,28.33,1.12,9.7-2.02,24.74-14.45,24.88-10.54.12-16.62-15.42-19.4-23.49-2-5.8-3.36-11.86-3.83-17.98-.33-4.31-.69-10.27,3.91-12.36-1.6-.21-3.21-.41-4.81-.62,7.43,8.74,12.37,19.44,14,30.82.79,5.51,1.15,11.85-.97,17.11-2.56,6.35-9.18,9.5-14.9,4.96-8.19-6.52-13.37-17.97-16-27.84-2.87-10.79-2.88-21.99-.14-32.8-2.27.6-4.55,1.2-6.82,1.8,7.63,6.94,13.03,15.74,15.61,25.75,2.39,9.3,3.08,21.95-2.32,30.41-8.13,12.75-20.07-4.8-23.74-12.2-5.22-10.52-7.1-22.69-5.43-34.3-2.32.61-4.64,1.23-6.96,1.84,6.64,7.1,11.12,15.88,12.67,25.51.92,5.73.52,17.29-6.74,19.11-8.81,2.21-15.11-12.02-17.12-18.44-2.84-9.09-2.67-18.57.28-27.61-2.31.61-4.62,1.22-6.93,1.83,6.01,7.69,9.46,17.28,9.62,27.05.11,6.74-1.74,17.49-9.37,19.87-9.17,2.86-16.16-9.97-18.72-16.75-3.43-9.08-3.9-18.84-1.51-28.23-2.04.83-4.08,1.66-6.12,2.49,16.68,12.15,6.61,39.41-14.09,37.26-21.83-2.27-28.45-26.65-27.92-44.98-2.11,1.21-4.22,2.42-6.34,3.64,9,3.86,14.13,12.52,13.1,22.26,2.63-.71,5.25-1.42,7.88-2.13-3.77-6.99-5.41-14.77-4.71-22.69.36-4.02,1.39-8.13,3.03-11.82.46-1.03.96-2.9,2.19-3.19,1.36-.32,3.51,2.83,4.2,3.75,8.77,11.62,10.03,28.11,3.76,41.12,1.6-.65,3.19-1.3,4.79-1.95-3.98-1.22-3.09-12.5-3.13-15.47-.11-7.11.33-14.24,1.42-21.26,1.89-12.23,5.29-25.19,11.21-36.14.99-1.82,2.56-5.05,5.07-4.69,2.07.3,3.78,4.3,4.56,5.87,2.82,5.65,4.55,11.97,5.15,18.25.54,5.59.27,11.31-.93,16.8-.58,2.65-1.3,5.33-2.31,7.85-.94,2.33-2.96,6.98-4.92,3.03-2.41-4.85-2.41-12.17-2.85-17.44-.57-6.79-.68-13.61-.35-20.41.63-12.64,2.89-25.18,6.68-37.26.89-2.83,1.85-5.63,2.9-8.39.64-1.7,2.02-7,3.86-7.91,2.99-1.47,4.64,3.76,5.74,5.77,1.77,3.26,3.41,6.6,4.82,10.02,4.6,11.17,7.1,23.55,4.94,35.58-1.02,5.69-2.98,11.15-6.06,16.05-.75,1.2-1.58,2.7-2.61,3.66-1.54,1.44-.46,1.6-1.92.3-1.83-1.62-1.88-6.57-2.21-8.73-1.79-12.02-1.63-24.51.43-36.48,2.04-11.86,5.76-23.45,11.26-34.17,2-3.88,6.06-13.49,10.9-7.67,3.55,4.26,5.31,11.52,6.66,16.76,2.98,11.57,3.26,23.91.76,35.6-1.22,5.72-3.02,11.36-5.54,16.65-1.1,2.32-2.29,5.55-4.11,7.35-3.32,3.26-2.44-2.48-2.33-4.67.61-13.16,2.86-26.25,6.44-38.93,2.98-10.55,6.39-24.47,15.12-31.89,3.86-3.28,5.86-1.23,7.58,2.46,1.43,3.08,2.38,6.47,3.23,9.75,1.75,6.68,2.56,13.55,2.51,20.45-.05,6.91-.98,13.76-2.79,20.43-.88,3.22-1.93,6.42-3.22,9.51-.36.87-3.71,9.28-4.92,9.06-2.53-.47-.36-17.34-.13-19.77.71-7.68,1.92-15.3,3.59-22.83,2.83-12.75,6.24-26.9,16.61-35.71-2.11-.27-4.22-.54-6.32-.81,14.84,31.23,11.33,69.24-8.34,97.55,2.44.32,4.88.64,7.32.96-3.83-18.14-1.4-36.61,2.54-54.52,1.73-7.86,3.45-15.85,5.85-23.54,2.1-6.72,5.09-13.14,11.81-16.19-1.78-.47-3.57-.94-5.35-1.4,15.38,33.25,14.26,72.98-2.59,105.45,2.44.66,4.88,1.32,7.33,1.98-.27-28.68,3-60.4,23.93-81.99l-5.9-.76c13.01,28.41,10.6,62.46-5.91,88.91,2.22.29,4.43.58,6.65.87-5.89-25.95-2.22-53.55,9.78-77.24-1.79.23-3.58.46-5.37.69,10.26,12.91,5.64,31.42,1.75,45.83-1,3.7,4.66,5.26,5.74,1.58.74-2.54,1.49-5.07,2.23-7.61,1.05-3.59-4.46-5.08-5.58-1.54h0Z"></path><path class="cls-1" d="M214.66,43.64c-5.3-6.23-18.45-13.05-22.45-1.55-1.95,5.61-.9,12.95-.52,18.75.43,6.58,1.29,13.14,2.54,19.62,2.54,13.16,6.88,25.96,12.75,38,4.72,9.69,10.89,19.53,21.86,22.64,1.38.39,3.19.03,4.16-1.1,11.31-13.16,7.81-31.38,2.55-46.4-6.16-17.6-15.87-33.64-28.4-47.43-2.71-2.99-7.06-.42-7.35,3.05-2.18,25.97,6.19,51.68,22.74,71.73.93,1.13,2.83,1.52,4.18,1.11,10.12-3.08,7.16-15.69,5.14-23.28-2.98-11.21-8.05-21.97-14.84-31.37-4.97-6.88-14.62-21.52-24.61-14.73-8.4,5.7-11.53,18.72-12.42,28.12-1.11,11.66.88,23.82,4.22,34.99,2.83,9.43,6.92,23.52,16.32,28.5,3.73,1.98,8.57,2.27,12.32.22,5.19-2.83,6.46-9.06,7.22-14.43,1.8-12.72-1.19-25.62-5.93-37.4-4.53-11.28-10.41-22-17.61-31.8-5.55-7.55-13.87-19.26-24.12-11.2-8.56,6.73-11.04,20.67-10.05,30.88.79,8.16,4.58,23.72,15.55,22.75,10.93-.96,13.44-16.73,13.3-25.22-.2-12.46-4.97-24.33-9.85-35.6-4.39-10.12-10.11-18.71-21.82-20.28-6.44-.87-13.12-.69-19.62-.92-6.88-.24-13.78-.6-20.67-.62-13.1-.03-26.76,1.56-37.99,8.86-10.45,6.79-17.27,17.35-17.46,29.99-.38,24.9,16.33,49.15,37.1,61.6,4.2,2.52,7.75-3.79,3.8-6.5-22.86-15.63-50.09-60.84-15.87-79.29,16.04-8.65,36.4-5.96,53.91-5.48,8.57.24,19.56-1.41,25.53,6.04,5,6.24,7.85,14.99,10.43,22.44,2.99,8.65,5.28,18.05,3.42,27.2-.57,2.81-3,12.06-6.96,7.84-2.56-2.73-3.54-8.18-4.06-11.74-.62-4.31-.44-8.76.55-13.01.88-3.76,2.47-9.49,5.81-11.89,5.52-3.96,14.88,13.3,17.41,17.35,9.37,14.98,17.97,33.22,16.91,51.31-.17,2.92-.4,10.86-4.03,11.78-4.05,1.02-7.02-4.35-8.52-7.18-4.13-7.79-6.95-16.39-8.78-25-1.97-9.22-2.95-19.13-1.13-28.46.87-4.45,2.35-8.73,4.76-12.59,1.56-2.51,3.11-4.56,6.15-2.79,1.79,1.04,3.61,3.68,4.97,5.24,5.95,6.84,10.8,14.73,14.35,23.07,1.13,2.66,9.18,23.01,4.88,24.32,1.39.37,2.79.74,4.18,1.11-15.12-18.33-22.19-42.03-20.2-65.65-2.45,1.02-4.9,2.03-7.35,3.05,10.72,11.8,19.36,25.51,25.04,40.43,4.64,12.19,10.54,29.97.86,41.26,1.39-.37,2.77-.73,4.16-1.1-8.08-2.28-12.44-10.08-15.99-17.1-4.38-8.67-7.8-17.79-10.33-27.16-2.52-9.37-4.13-18.96-4.72-28.64-.25-4.15-1.25-9.86-.17-13.9,1.27-4.79,7.19,1.61,8.82,3.52,3.51,4.12,9.42-1.84,5.94-5.94h0Z"></path></g><path class="cls-1" d="M123.86,151.03c-.07,5.2,2.04,10.33,5.74,13.99s9.22,5.55,14.58,5.65,11.31-1.08,15.75-4.12,6.85-7.88,7.73-13.03c3.28-19.15-11.25-38.95-30.03-42.8-1.55-.32-3.17-.61-4.68.04-1.21.52-2.02,1.53-2.51,2.73-1.06,2.58-.81,5.78-.65,8.51.4,6.83,2.22,13.49,5.28,19.61.86,1.73,3.45.21,2.59-1.51-2.38-4.75-3.97-9.92-4.61-15.2-.31-2.58-.43-5.21-.29-7.8.05-.88.13-1.81.51-2.62.57-1.21,1.67-1.19,2.87-.99,8.13,1.35,15.48,6.2,20.68,12.47,5.31,6.39,8.51,14.66,8.3,23-.11,4.31-1.14,8.93-3.88,12.37-3.06,3.83-7.99,5.43-12.68,6.09-5.27.74-11.1.09-15.42-3.26-4.01-3.1-6.35-8.07-6.27-13.12.03-1.93-2.97-1.93-3,0h0Z"></path><path class="cls-1" d="M27.26,179.91c11.51,0,22.53-10.12,22-22s-9.67-22-22-22c-11.51,0-22.53,10.12-22,22s9.67,22,22,22h0Z"></path><path class="cls-1" d="M49.11,157.91c-.06-.88.29-3.92-.01-4.67.59,1.44-1.21,3.96.11,1.28,2.34-4.75-2.72,3.98.2-.53.37-.58,2.54-4.57.88-1.74s.76-.78,1.34-1.37c.07-.07,3.92-3.79,1.53-1.59-2.28,2.11,1.23-.82,1.83-1.2,1.41-.9,2.86-1.74,4.34-2.53,1.23-.66,2.49-1.28,3.76-1.88,2.33-1.1,2.62-1.46.13-.14,2.46-1.3,5.48-2.15,8.16-2.88.83-.24,1.67-.44,2.52-.61,1.65-.33,1.12-.28-1.59.13.74-.56,3.05,0,3.9-.04,1.24.09,1.04.05-.6-.1-1.89-.27-1.85-.19.12.25-3.17-1.26-2.08-1.05.27.51,9.59,6.41,24.78,2.18,30.1-7.89,5.85-11.07,2.35-23.26-7.89-30.1-18.93-12.64-42.79-5.06-61.08,4.75S3.53,136.22,5.11,157.91c.83,11.45,9.52,22.56,22,22,11.21-.5,22.89-9.71,22-22h0Z"></path><path class="cls-1" d="M32.71,152.25c11.51,0,22.53-10.12,22-22s-9.67-22-22-22c-11.51,0-22.53,10.12-22,22s9.67,22,22,22h0Z"></path><path class="cls-1" d="M41.9,146.46c11.51,0,22.53-10.12,22-22s-9.67-22-22-22c-11.51,0-22.53,10.12-22,22s9.67,22,22,22h0Z"></path><path class="cls-1" d="M54.83,141.01c11.51,0,22.53-10.12,22-22s-9.67-22-22-22c-11.51,0-22.53,10.12-22,22s9.67,22,22,22h0Z"></path><path class="cls-1" d="M114.59,96.89c-.5-9.04-1.61-18.19-6.56-26-5.34-8.42-12.55-12.43-21.74-15.62l9.71,5.66c2.97,2.32,4.89,10.56,3.19,4.76-1.11-3.78.27,3.92.1,1.22-.22-3.69.03-.28-.4,1.42-1.02,4.11-3.34,6.89-6.98,8.35-3.58,1.77-4.1,2.21-1.57,1.32,3.09-.32,6.5-1.87,9.49-2.72,1.9-.54,3.8-1.09,5.69-1.63,1.29-.37,7-1.49,1.43-.99l-11.1-3,.79.59-10.11-13.15c-1.12-3.73-.85-7.19.81-10.35l-.77,1.62c-.86,1.57-1.66,3.19-2.51,4.77-1.72,3.18-3.4,6.34-4.85,9.66-4.46,10.19-7.04,21.08-4.17,32.16,3.83,14.8,20.1,22.49,34.05,16.99,9-3.55,16.68-8.43,23.78-15.05-11.52-1.48-23.04-2.97-34.55-4.45,3.18,5.33,6.37,10.67,9.55,16,5.9,9.88,20.05,14.37,30.1,7.89s14.2-19.53,7.89-30.1c-3.18-5.33-6.37-10.67-9.55-16-7.45-12.49-24.17-14.13-34.55-4.45-.46.43-4.1,3.54-1.65,1.6s-1.81,1.13-1.95,1.21c-.97.6-1.98,1.11-2.96,1.68-1.88.89-2.03,1-.45.33,1.14-.56,2.36-.83,3.65-.8l11.1,3-.99-.61,7.89,7.89c.73,1.46,1.13,3,1.22,4.6.19,2.02.23,1.91.14-.35-.59,3.01-.46,2.09.19-.32.56-2.05.85-3.61-.05-.69.49-1.59,1.64-3.36,2.41-4.83,3.73-7.04,8.23-14.17,9.3-22.17,1.98-14.75-9.02-28.12-24.26-27.53-8.26.32-16.93,3.94-24.83,6.24-10.04,2.91-18.37,7.9-22.57,17.84-3.37,7.98-3.09,16.17-1.22,24.51.97,4.31,2.88,8.3,5.56,11.77,1.96,2.53,4.3,4.57,7.01,6.32-.55-.35,5.78,1.8,6.99,2.7l-2.77-1.28c-2.4-2.11-3-2.59-1.8-1.43,1.8,1.86-2.5-4.02-.67-.61-3.17-5.92.43.11-.33.97l-.38-2.4c.09,1.16.16,2.31.22,3.47.63,11.47,9.66,22.55,22,22,11.38-.51,22.68-9.69,22-22h0Z"></path><path class="cls-1" d="M112.65,62.11c4.94.73,9.89,1.43,14.82,2.2,1.77.27,3.52.67,5.28.95,2.5.81,2.31.62-.59-.57.96.44,1.92.89,2.87,1.35,4.91,2.24,9.87,4.49,15.14,5.73,3.6.85,7.47,1.35,11.12,1.72,1.18.14,2.37.24,3.56.29,2.77.12,2.38.03-1.15-.27l-9.71-5.66c2.69,2.1-3.04-4.35-.4-.88,1.89,2.49,3.71,4.95,6.01,7.07,1.09,1,2.24,1.94,3.35,2.92.55.48,1.07,1.01,1.64,1.48,2.1,1.73.17-.03-.59-1.17.33.5,1.84,2.23.26.17-1.36-1.76-.21-.54-.09.57.22,2.06.71,4.12,1.01,6.17.14.95.28,1.89.41,2.84.05.37.48,3.54.13.86s.06.5.1.87c.15,1.27.31,2.53.46,3.8.96,8.18,1.78,16.4,2.21,24.63.21,4.08.31,8.17.21,12.26-.05,1.88-.14,3.76-.28,5.63-.05.67.08,2.22-.25,2.81.77-1.38.53-2.98.03-.27-.7,3.86-3.41,8.07,2.37.72,3.94-5,4.7-5.22,2.09-3.61.04-.02,3.87-1.8,1.55-.91s1.74-.49,1.98-.19c-.09-.11-2.15-.02-2.36,0-2.46.22,1.8-.06,1.93.29-.03-.08-3.09-.82-3.06-.86.04-.06,4.97,2.21.92.23-.67-.33-2.47-1.94-.31,0,2.41,2.17-1.09-1.11-1.64-1.7-.37-.39-1-1.44-1.47-1.66.31.14,2.22,3.46,1.25,1.46-.45-.94-1.75-4-2.56-4.54,1.59,1.06,1.33,3.82.51,1.12-.23-.77-.5-1.52-.73-2.29-.52-1.76-.8-3.56-1.26-5.32-.67-2.57.06,1.21.11,1.34-.29-.71-.19-1.97-.25-2.73-.19-2.44-.26-4.88-.26-7.32,0-3.77.14-7.55.47-11.31.08-.91.06-1.96.29-2.84-.07.27-.73,3.67-.1,1.14s.96-4.9,1.67-7.32c.09-.31.5-2.33.78-2.44-.45.19-1.9,3.49,0,.67-3.22,4.79-2.29,1.97-12.69,1.85s-10.35,2.35-13.67-3.77c-1.52-2.79-.19-.54.06.28.35,1.13.72,2.24,1.03,3.38s.52,2.29.81,3.44c.81,3.26.58-.03.01-.61.77.79.3,5.06.29,6.17,0,.88-.07,1.76-.07,2.65-.03,2.6.12,1.21.25-.58-.17,2.34-.98,4.62-1.5,6.89-.23.98-1.47,2.89.05.33.5-.84,3.79-4.7,1.41-2.85l9.71-5.66c10.09-1.23,16.16,1.47,18.21,8.09.6,1.71.58,1.6-.05-.31-.15-.72-1.16-5.29-.51-1.81s-.11-1.72-.17-2.49c-.14-1.91-.24-3.82-.29-5.74-.09-3.19-.04-6.39.14-9.58.11-1.92.29-3.82.46-5.73.43-4.87-.6,3.54.26-1.74l-43.21-5.85c-.18,1.84-.35,3.68-.54,5.51-.13,1.23-.26,2.45-.41,3.67.36-2.49.42-2.92.17-1.28-.63,3.64-1.24,7.24-2.23,10.81-.3,1.08-.85,4.91-1.8,5.56l1.04-2.4c-.42.94-.87,1.87-1.34,2.78-.71,1.37-1.58,2.64-2.33,3.99-2.07,3.73,2.94-2.87-.28.4-.29.29-3.24,2.89-3.27,3.2,2.29-1.68,2.74-2.05,1.35-1.1-.68.47-1.37.9-2.09,1.3-.71.41-1.44.79-2.18,1.14-1.47.7-.97.5,1.49-.59-1.06.88-3.34,1.16-4.7,1.55-3.19.92-6.44,1.62-9.69,2.25-1.14.23-2.28.44-3.42.64,2.69-.3,3.2-.37,1.54-.21-1.35.02-7.6-.28-1.9.55-6.1-.89-11.41-1.03-16.95,2.22-4.56,2.67-8.92,7.9-10.11,13.15-2.87,12.62,3.85,22.59,15.37,27.06,4.8,1.87,9.59,3.77,14.36,5.73.78.32,8.22,3.46,3.66,1.51,2.37,1.01,4.73,2.03,7.1,3.06,10.52,4.59,24.11,3.45,30.1-7.89,5.03-9.51,3.37-25.19-7.89-30.1s-23.64-10.08-35.62-14.74l-11.7,42.43c21.66,3.15,48.85-2.82,64.63-18.93,16.25-16.57,19.55-39.2,21.65-61.27,1.03-10.86-9.17-20.28-19.08-21.61s-22.38,4.94-24.14,15.76c-3.01,18.51-5.37,41.36,3.43,58.71,6.95,13.69,24.13,20.57,37.91,12.51,9.65-5.64,14.12-16.69,15.81-27.24,3.07-19.1,1.51-46.61-16.7-58.19-13.63-8.67-30.17-2.15-38.74,10.12-5.47,7.83-7.46,17.43-8.71,26.73-2.54,18.87-1.94,38.18,6.18,55.69s25.79,29.7,44.82,29.26c12.01-.27,24.93-5.27,31.19-16.11,5.04-8.72,5.63-20.39,6.03-30.21.73-17.71-1.83-35.65-4.22-53.15-1.53-11.19-3.61-21.23-11.69-29.79-.95-1.01-6.45-7.09-7.61-6.96-.06,0,3,3.96.95,1.29-1.33-1.73-2.57-3.76-4.12-5.3-3.04-3.03-7.14-5.38-11.26-6.52-3.14-.87-6.58-1.06-9.84-1.09-.7,0-3.17-.64-.63.07,2.82.79-.92-.2-1.48-.32-1.17-.25-2.32-.55-3.46-.88-.47-.14-4.22-1.17-1.58-.38,2.36.71.04.02-.47-.22-.96-.45-1.91-.91-2.87-1.35-9.75-4.38-19.55-5.47-30.02-7.02-6.08-.9-11.42-1.02-16.95,2.22-4.56,2.67-8.92,7.9-10.11,13.15-2.38,10.45,3.19,25.26,15.37,27.06h0Z"></path><path class="cls-1" d="M108.36,159.38c2.69,5.25,5.34,10.65,8.52,15.62,6.32,9.88,15.6,15,27.33,15.59,7.36.37,15.01-1.25,22.21-2.53,1.52-.27,3.04-.52,4.56-.81,4.27-.79-2.18.04.54-.12,3.41-.2,6.63-.4,10.05-.11-5.19-12.52-10.37-25.04-15.56-37.56-.74.77-1.51,1.5-2.32,2.2,2.4-1.75,2.62-1.93.65-.54-1.37.8-2.78,1.59-4.13,2.42-2.2,1.04-1.91.95.87-.26-1,.39-2.01.74-3.04,1.06-1.54.48-3.1.88-4.68,1.22-1.05.22-2.11.41-3.17.57,3.25-.42,3.54-.51.88-.26-1.78.03-3.58.18-5.36.29-5.47.33-11.1.76-16.39,2.25-2.2.62-4.28,1.57-6.44,2.32-2.52.87-4.39.98-.72.74-2.46-.07-1.91.06,1.66.39-2.25-.69-1.81-.41,1.31.84.02-.08-3.28-1.75-3.79-2.05-2.96-1.79-5.72-3.89-8.7-5.65s-5.97-2.92-9.13-4.26c-2.24-.93-1.94-.8.91.39-2.29-1.43-1.92-.86,1.11,1.72,2.54,2.97,3.14,3.41,1.81,1.33,1.28,3.22,1.52,3.71.71,1.47-.67-2.24-1.56-4.39-2.47-6.54-2.42-5.73-5.65-10.51-10.63-14.35-10.28-7.95-24.9-12.2-36.89-5.22-4.15,2.42-7.71,5.79-11.3,8.96-4.21,3.73,2.85-1.84-.76.56s4.32-1.45-.95.07c-15.59,4.47-25.57,18-21.82,34.43,2.56,11.23,16.1,18.91,27.06,15.37,11.76-3.8,18.11-15.03,15.37-27.06.99,10.56-2.22,17.19-9.64,19.89.72-.19,1.44-.39,2.17-.58,3.01-.85,5.96-2.01,8.74-3.43,3.82-1.97,7.16-4.84,10.39-7.63.76-.66,3.48-3.95,4.43-3.94l-2.13,1.69c-11.68.03-15.02.75-10.03,2.16-2.83-1.31-3.5-1.59-2.01-.85.63.3,1.24.65,1.82,1.04-1.3-.24-5.21-6.01-3.47-2.77-3.08-5.74-.43-.35.13,1.21.95,2.62,1.88,5.33,3.27,7.74,2.79,4.83,6.66,9.13,11.51,11.99,2.98,1.75,6.3,2.97,9.51,4.2l-2.49-1c.87.44,1.73.91,2.57,1.42,2.76,1.64,5.36,3.56,8.08,5.26,8.62,5.38,18.11,8.02,28.25,6.66,4.55-.61,8.32-2.13,12.62-3.55.79-.26,4.28-1.64,5.09-1.29-2.92.38-3.1.44-.55.2.89-.06,1.78-.11,2.68-.15,18.95-1.01,36.69-5.81,50.52-19.54,6.3-6.26,7.95-15.98,4.55-24.03-3.58-8.49-11.13-12.78-20.11-13.52-6.29-.52-12.41.33-18.64,1.23-2.44.35-4.87.78-7.3,1.21-1.22.22-2.44.41-3.65.65-4.27.81,2.16-.05-.56.14-2.29.16-5-.08-7.22.34-2.56-.19-1.17.51,4.17,2.09,2.59.16,4.5,1.19,5.73,3.12,1.98,1.64.08-.17-.47-1.13-2.55-4.43-4.94-8.95-7.28-13.49-5.26-10.26-20.49-14.09-30.1-7.89-10.47,6.75-13.52,19.13-7.89,30.1h0Z"></path><path class="cls-1" d="M33.39,194.8c11.51,0,22.53-10.12,22-22s-9.67-22-22-22c-11.51,0-22.53,10.12-22,22s9.67,22,22,22h0Z"></path><path class="cls-1" d="M44.96,201.95c11.51,0,22.53-10.12,22-22s-9.67-22-22-22c-11.51,0-22.53,10.12-22,22s9.67,22,22,22h0Z"></path><path class="cls-1" d="M50.75,208.08c11.51,0,22.53-10.12,22-22s-9.67-22-22-22c-11.51,0-22.53,10.12-22,22s9.67,22,22,22h0Z"></path><path class="cls-1" d="M77.64,216.25c11.51,0,22.53-10.12,22-22s-9.67-22-22-22c-11.51,0-22.53,10.12-22,22s9.67,22,22,22h0Z"></path><path class="cls-1" d="M44.62,205.01c11.51,0,22.53-10.12,22-22s-9.67-22-22-22c-11.51,0-22.53,10.12-22,22s9.67,22,22,22h0Z"></path><path class="cls-1" d="M90.92,213.87c11.51,0,22.53-10.12,22-22s-9.67-22-22-22c-11.51,0-22.53,10.12-22,22s9.67,22,22,22h0Z"></path><path class="cls-1" d="M88.17,216c8.59.27,17.19.27,25.78-.06,3.96-.15,7.93-.3,11.88-.65,8.37-.74,13.12-2.61,20-7.94,4.13-3.2,6.44-10.62,6.44-15.56,0-5.4-2.4-11.84-6.44-15.56s-9.7-6.71-15.56-6.44c-6.23.28-10.67,2.66-15.56,6.44l-.93.72,9.71-5.66c-3.74,1.47,6.56-.13.35.13-1.32.06-2.64.17-3.96.24-3.63.2-7.26.34-10.9.43-6.94.17-13.88.12-20.82-.09-11.51-.36-22.52,10.37-22,22,.55,12.22,9.66,21.62,22,22h0Z"></path><path class="cls-1" d="M202.92,76.67c11.51,0,22.53-10.12,22-22s-9.67-22-22-22c-11.51,0-22.53,10.12-22,22,.53,11.92,9.67,22,22,22h0Z"></path><path class="cls-1" d="M208.76,75.86c11.66-2.56,21.41-7.48,31.46-13.76,9.75-6.09,14.46-19.91,7.89-30.1s-19.66-14.42-30.1-7.89c-2.15,1.34-4.3,2.7-6.46,4.03-1.14.71-4.13,3.26-5.48,3.17,2.74-1.08,2.95-1.2.65-.35-1.05.35-2.11.66-3.18.95-2.14.58-4.31,1.05-6.48,1.52-11.26,2.47-18.89,16.17-15.37,27.06,3.83,11.84,15,18.01,27.06,15.37h0Z"></path><path class="cls-1" d="M230.15,59.65c11.51,0,22.53-10.12,22-22-.53-11.92-9.67-22-22-22-11.51,0-22.53,10.12-22,22,.53,11.92,9.67,22,22,22h0Z"></path><path class="cls-1" d="M242.41,55.23c11.51,0,22.53-10.12,22-22-.53-11.92-9.67-22-22-22-11.51,0-22.53,10.12-22,22,.53,11.92,9.67,22,22,22h0Z"></path><path class="cls-1" d="M248.24,54.46c2.23-.31,4.29-.88,6.43-1.58.88-.29,5.62-2.56,6.35-2.03-3.15.28-3.47.35-.96.18,2.51.12,2.2-.01-.94-.38,1.08.2,2.14.47,3.19.82-2.69-1.25-2.94-1.32-.76-.2,10.14,5.44,24.41,2.87,30.1-7.89s2.93-24.29-7.89-30.1c-7.74-4.16-16.47-6.74-25.34-6.16-7.81.51-14.32,3.85-21.88,4.91-5.06.71-10.7,5.93-13.15,10.11-2.76,4.72-3.93,11.67-2.22,16.95,4.06,12.54,14.81,17.09,27.06,15.37h0Z"></path><path class="cls-1" d="M266.29,50.31c1.36.71,2.61,1.47,3.92,2.27,3.39,2.06-2.08-2.09-.3-.24,1.93,2,3.94,3.87,5.79,5.97,2.68,3.05-1.65-2.45-.14-.22.72,1.07,1.5,2.09,2.22,3.15,1.58,2.33,3.09,4.72,4.58,7.11s3.04,4.9,4.48,7.39c1.14,1.97,4.52,6.25,4.49,8.57l-.86-2.05c.32.8.62,1.61.89,2.43.46,1.35.77,2.75,1.21,4.1,1.53,4.74.21-4.12.23.85,0,1.72.02,3.4-.11,5.12-.87,11.5,10.74,22.5,22,22,12.66-.57,21.07-9.68,22-22,1.34-17.72-7.25-34.06-16.33-48.61-8.25-13.21-17.71-26.45-31.85-33.84-10.19-5.32-24.37-2.95-30.1,7.89-5.35,10.13-3,24.41,7.89,30.1h0Z"></path><path class="cls-1" d="M307.43,85.53c11.51,0,22.53-10.12,22-22-.53-11.92-9.67-22-22-22-11.51,0-22.53,10.12-22,22,.53,11.92,9.67,22,22,22h0Z"></path><path class="cls-1" d="M297.9,68.5c11.51,0,22.53-10.12,22-22-.53-11.92-9.67-22-22-22-11.51,0-22.53,10.12-22,22,.53,11.92,9.67,22,22,22h0Z"></path><path class="cls-1" d="M297.9,68.5c11.51,0,22.53-10.12,22-22-.53-11.92-9.67-22-22-22-11.51,0-22.53,10.12-22,22,.53,11.92,9.67,22,22,22h0Z"></path><path class="cls-1" d="M250.96,63.02c1.26,5.55,2.4,11.13,3.38,16.74.49,2.8.94,5.61,1.36,8.43.07.48.58,4.52.26,1.77-.36-3.09.25,2.14.32,2.72.58,5.04.27,10.66,1.3,15.57l21.63-16.34-1.37-.4,2.66,1.06c-1.58-1.02-1.63-.99-.13.11,2.55,2.02.06-.27-.44-.68-1.62-1.32,2.36,4.32.36.29-.16-.32-1.22-2.78-1.46-2.82.72.12,1.41,4.16.52.79-.66-2.46-1.35-4.88-1.84-7.38-.3-1.5-.71-3.08-.8-4.62.12,1.97.3,2.67.1.27-.24-2.81-.47-5.61-.6-8.42-.56-11.62-.26-23.26-1.29-34.85s-9.4-22.56-22-22-21.77,9.66-22,22c-.47,25.39-.93,50.79-1.4,76.18,12.52-5.19,25.04-10.37,37.56-15.56,6.63,7.32,4.11,14.91,4.48,7.83.08-1.56.26-3.13.42-4.69s.34-3.12.52-4.67c.72-6.26-.72,4.62.23-1.61,1.07-7.03,2.2-14.05,3.35-21.07,2.36-14.38,4.82-28.75,7.36-43.1,1.66-9.36-1.01-20.04-10.11-24.84-8.16-4.31-20.24-4.16-26.66,3.44-14.25,16.86-27.11,36.03-30.45,58.32-1.96,13.07-2.23,26.88,3.65,39.06,3.38,7.01,9.76,12.37,17.12,14.76,9.97,3.25,20.18-.22,27.9-6.72,17-14.32,20.4-40.69,20.48-61.52.05-12.32-2.43-26.78-11.78-35.65-13.68-12.99-32.62-6.81-45.5,3.54-16.9,13.58-25.55,37.1-27.62,58.08-2.28,23.06,7.8,45.68,26.79,58.93,9.9,6.91,23.41,10.51,35.24,7.31,17.38-4.7,22.78-22.85,19.67-38.68-2.48-12.62-9.86-26.98-21.92-32.76-14.66-7.02-30.4-3.71-42.54,6.54-17.55,14.8-22.63,41.36-18.44,62.92,2.22,11.41,8.42,23.05,17.67,30.19,13.11,10.12,31.09,9.19,42.98-2.58,16.44-16.28,19-47.78,6.56-67.18-8.25-12.87-23.7-19.63-38.69-15.25s-23.06,15.92-28.47,29.32c-4.38,10.87-6.02,24.03-2.17,35.31,4.16,12.17,12.99,21.23,24.74,26.19,22.06,9.31,45.01,1.63,62.66-12.95,15.49-12.79,28.04-32.6,33.3-51.95,2-7.36,2.81-14.93-.22-22.11-4.85-11.48-17.27-17.1-29.28-14.23s-22.27,14.98-28.18,25.46c-10.77,19.1-20.01,51.54-1.66,69.2,21.22,20.41,53.3.35,64.1-21.24,5.13-10.26,9.87-24.11,6.77-35.6-3.03-11.24-13.8-18.98-25.44-17.42-9.73,1.31-16.4,7.27-21.97,14.91-7.81,10.72-12.96,25.16-8.79,38.31,4.16,13.11,16.18,23.03,29.6,25.61s26.46.69,38.64-5.78c10.18-5.41,14.15-20.39,7.89-30.1-6.67-10.34-19.22-13.68-30.1-7.89-2.19,1.1-1.95,1.06.74-.12-1.04.39-2.1.72-3.17,1-2.47.5-2.15.53.94.09-1.1.11-2.21.16-3.32.16-2.51-.15-2.22-.02.89.38-1.03-.16-2.05-.39-3.06-.67-2.27-.76-1.9-.55,1.1.63-.88-.44-1.73-.94-2.54-1.5,1.7.86,2.99,2.13,3.87,3.82-1.13-2.01-.96-1.65.5,1.09.64,1.72.71,3.46.2,5.23.74-2.32.57-2.16-.51.47.68-2.16,2.32-4.01,3.37-5.98,1.35-1.97,1.1-1.72-.74.72,2.7-2.64,1.11-1.82-4.77,2.44-5.65-.74-11.3-1.48-16.95-2.22l.76.4c-2.63-2.63-5.26-5.26-7.89-7.89.01.02-2.43-12.02-2.47-6.96,0-1.1.85-4.56.16-1.61-.44,1.87-.85,3.73-1.46,5.55-.29.87-.81,1.8-.99,2.7.23-1.16,1.88-3.85.42-1.35-.76,1.3-2.66,3.44-2.96,4.85.2-.95,2.92-3.31.81-1.15-.65.67-1.27,1.37-1.94,2.02-.63.61-1.57,1.16-2.09,1.85.72-.93,3.56-2.35,1.04-1.02-.54.28-2.13.88-2.45,1.36.27-.39,4.29-2.21,1.23-.59-2.41,1.27-.34-.14,1.35-.1,5.62.15,10.22,3.63,12.8,8.4,1.58,2.92.02.51.09-.48.18-2.69-.03,4.61.26,1.31.1-1.12-.06-2.32-.02-3.46.02-.61.47-4.37,0-1.38s.22-.8.34-1.35c.25-1.14.53-2.26.85-3.38.64-2.25,1.47-4.42,2.25-6.62,1.05-2.95-1.57,3.06-.18.52.5-.92.91-1.91,1.39-2.84.97-1.88,2.02-3.72,3.18-5.48.32-.48,2.36-3.45.59-.96s.38-.29.82-.75c.72-.75,1.53-1.42,2.26-2.16.91-.78.78-.69-.38.26-2.1,1.91-4.74,2.74-7.9,2.5l-11.1-3,1.24.59-7.89-7.89c-6.44-8.97-.11-16.81-1.81-10.72-.31,1.1-.54,2.22-.85,3.31-.48,1.65-1.09,5.15-2.23,6.47.28-.33,2.17-4.42.14-.55-.53,1.01-1.02,2.05-1.56,3.06-1.21,2.28-2.53,4.5-3.92,6.67-1.04,1.63-2.16,3.21-3.25,4.81-2.15,3.17.24-.39.7-.8-.69.6-1.32,1.65-1.93,2.37-2.82,3.34-5.96,6.21-9.13,9.19-2.16,2.03,3.36-2.26.88-.66-.84.54-1.64,1.14-2.48,1.68-1.69,1.08-3.46,1.93-5.2,2.89-2.57,1.42,3.98-1.26,1.14-.51-.71.19-1.41.49-2.12.7-.96.28-1.94.46-2.9.74-4.57,1.31,4.69.13.33-.06-.89-.04-1.85,0-2.73,0-2.95.01.37-1.08,1.77.35-.62-.64-3.58-.93-4.6-1.18-2.67-.65,3.71,2.3,1.56.65-.64-.49-1.54-1.01-2.28-1.34-2.54-1.13,3.57,2.69,1.38,1-2.54-1.96-.59-.77.51.96-2.12-3.34.41,1.51.3,1.45-.66-.35-.28-2.84-.88-3.06.67.25-.07,5.43.3,1.09.04-.44.22-3.16.16-3.23.47.51-1.26,5.13.04,1.01.33-1.04.55-2.12.88-3.17.12-.39,1.11-3.06,1.08-3.08.34.28-2.07,4.05-.31.88.52-.92,1.04-1.84,1.56-2.76,1.87-3.34-.14.14-.55.72,1.96-2.76.27-.13-.75.46-3.67,2.1-2.45.69-.86.41-4.2.74-7.67-.07-10.82-3.14,2.15,2.11-1.12-.56-.94-1.6,0,0,1.76,5.04.74.85-.91-3.72.49,2.44.7,3.17.83,2.83-.35-4.98-.18-1.75.04.8.15,1.6.19,2.4.06,1.07.69,5.76-.07,6.45.56-.51.92-4.29.12-1.09-.05.21-1.31,4.56-1.29,4.58-.19-.2,2.33-4.85.22-.95-.32.59-1.92,2.71.02.26l.86-1.1c-1.37,1.31-1.32,1.37.13.18,1.85-.66,3.33-1.8,5.46-2.04s3.94-.08,5.87.69c.65.26,4.76,3.32,2.9,1.52-2.07-2,1.86,3.43.63.85-.24-.5-2.14-2.79-1.89-3.37.01-.03,1.73,5.22.42.98-.3-.99-.65-1.95-.92-2.95s-.47-2.01-.7-3.01c-.78-3.38-.12,1.08.14,1.24-.64-.41-.18-4.53-.15-5.44.03-1.04.15-2.08.19-3.12.11-2.74-1,4.49.03.44.51-2.03,1.08-4.02,1.67-6.03,1.16-3.99.02.7-.47.9.24-.1,1.15-2.34,1.4-2.79.47-.87,1.01-1.7,1.5-2.56,1.65-2.9-.86.67-.83.85-.04-.27,2.02-2.18,2-2.16,2.67-2.89-2.57,1.65-.38.34,2.51-1.51-4.03,1.25-1.18.48s-4.45.11-1.45.18c2.51.06-2.27-.35-2.23-.34-1.55-.43-3.4-1.52-4.52-2.76-3.53-3.92,1.03.6,1.21,2.47-.33-3.48-.62-1.74-.21-.24s.71,2.94,1.15,4.35c1.02,3.31-.24-4.6-.26-1.68-.02,2.59.85-3.34,1.14-4.06,1.86-4.54,6.4-8.31,11.3-8.86.81-.09,6.44.81,3.97.09-.89-.26-1.84-.55-2.74-.72-2.79-.51,3.81,2.05,1.33.67-.61-.34-1.26-.62-1.87-.97-.62-.34-1.21-.71-1.8-1.11-1.36-.92-.82-.46,1.6,1.36-.25.21-3.73-3.54-4.11-3.93-2.38-2.44,1.02,1.03.75,1.1-.13.03-1.69-2.56-1.59-2.4-.38-.61-.73-1.24-1.07-1.88l-.34-.63c-.82-1.73-.86-1.72-.11.02l.54,1.31c-.27-.67-.51-1.34-.73-2.03-.38-1.13-.71-2.28-.98-3.44-.21-.91-.66-2.38-.66-3.38-.02,5.21.23,1.76.27.74.08-2.28,0-4.57.11-6.85.07-1.63-.62-3.3-.16.72-.1-.84.5-2.69.65-3.4.55-2.55,1.26-5.06,2.09-7.53.27-.83.58-1.64.86-2.46,1.4-4.12-.21-.06-.27.43.21-1.74,1.93-4.16,2.76-5.68.98-1.81,2.11-3.52,3.18-5.27,2.23-3.66-.68.66-.7.77.12-.85,1.98-2.24,2.54-2.81.71-.71,1.48-1.35,2.2-2.05,2.06-2-3.45,1.95-.85.78.88-.4,1.77-.97,2.61-1.46,2.19-1.28-2.64.92-3.43.99l-1.55.15-13.52-7.88c2.95,2.77-1.43-.75-.39-1.03.12-.03.75,2.77.86,3.17,1.39,4.84.04-4.38.07.7s-.01,9.94-.42,14.93c-.09,1.1-.21,2.19-.31,3.29-.39,4.28.61-2.86.01-.12-.52,2.41-.9,4.83-1.55,7.21-.29,1.05-.64,2.07-.95,3.11-1.14,3.93,1.37-2.3.11-.02-1,1.8-1.99,4.94-3.67,6.24l1.5-2.04-1.06,1.05c6.6-4.78,16.34-6.43,22.49,1.78.62.83,2.03,5.44,2.01,3.37-.01-1.19-.81-2.42-.76-3.64-.2,4.7.25,1.84.25.63-.01-1.76-.11-3.49-.04-5.25.03-.87.17-1.76.16-2.62-.03-2.7-.85,3.96,0-.24.59-2.88,1.22-5.73,2.1-8.54.35-1.12.76-2.22,1.13-3.34,1.31-3.97-1.06,1.92.11-.43,2.36-4.73,4.76-9.34,7.67-13.77,1.31-1.98,2.79-4.84,4.56-6.46-.5.45-2.85,3.52-.2.29,1.12-1.36,2.23-2.72,3.36-4.06-12.26-7.13-24.51-14.27-36.77-21.4-3.01,16.96-5.9,33.94-8.64,50.94-1.52,9.44-3.01,18.9-4.09,28.4-1.32,11.58-.6,21.62,7.7,30.78,5.89,6.51,16.32,7.8,24.03,4.55,8.1-3.42,13.36-11.24,13.52-20.11.47-25.39.93-50.79,1.4-76.18h-44c2.72,30.84-4.8,75.24,26.16,94.56,9.79,6.11,21.97,7.58,32.12,1.54,10.32-6.14,13-18.12,12.04-29.24-1.48-17.07-4.07-34.09-7.84-50.8-2.54-11.24-16.12-18.91-27.06-15.37-11.78,3.81-18.09,15.02-15.37,27.06h0Z"></path><path class="cls-1" d="M349.49,118.71c-.61-2.43-.7-2.04-.27,1.17-18.92,11.09-23.81,16.4-14.66,15.95,4.56.07,9.18-1.62,12.98-4,3.89-2.43,6.47-5.35,8.94-9.2,1.14-1.78,3.62-4.04-.44-.17-2.74,1.88-3.09,2.23-1.06,1.04-3.07,1.24-3.47,1.49-1.19.74,2.01-.36,4-.98,6-1.4,1.62-.34,3.26-.63,4.89-.94,2.5-.39,2.19-.35-.92.13,1.09-.1,2.18-.17,3.27-.2,1.08-.03,2.15-.02,3.23.04,2.5.21,2.13.15-1.13-.17.77.16,1.53.36,2.28.61,1.55.51,1.02.27-1.6-.73.86-.31,4.35,2.86,5.1,3.36,1.65,1.12,3.4,2.28,5.29,2.94,4.05,1.41-2.09-2.96.2-.1,1.25,1.56,2.7,3.02,4.19,4.35,4.29,3.83,9.07,7.1,13.91,10.19,9.72,6.21,24.7,2.33,30.1-7.89,5.76-10.89,2.48-23.48-7.89-30.1-1.17-.75-2.34-1.49-3.49-2.26-.7-.46-1.38-.93-2.06-1.41l1.81,1.44c-2.15-1.05-3.81-3.73-5.45-5.42-4.47-4.62-9.94-6.59-15.01-10.16-12.67-8.94-27.1-9.54-41.89-7.28-13.7,2.09-26.89,6.25-34.65,18.66-2.5,3.99-1.78,2.42,5.86-1.98,7.89-2.92,9.67-4.28,5.34-4.09l-5.85.79c-4.73,1.03-9.52,4.14-12.72,7.73-7.53,8.47-8.74,19.5-5.54,30.09s15.56,19.09,27.06,15.37,18.93-15.26,15.37-27.06h0Z"></path><path class="cls-1" d="M409.9,145.78c11.51,0,22.53-10.12,22-22-.53-11.92-9.67-22-22-22-11.51,0-22.53,10.12-22,22,.53,11.92,9.67,22,22,22h0Z"></path><path class="cls-1" d="M388.25,129.74c.51,2.53.55,2.32.12-.6.11,1.17.16,2.34.16,3.51,0,1.17-.05,2.34-.15,3.51.46-2.92.47-3.12.04-.59-.95,4.15-2.23,8.1-3.61,12.13-.94,2.33-.89,2.28.13-.16-.49,1.12-.98,2.24-1.49,3.35-.75,1.65-1.51,3.3-2.3,4.94-.46.99-.95,1.97-1.46,2.94-1.27,2.04-1.08,1.9.58-.43-.13,1.11-3.6,3.21-4.48,3.93-1.65,1.35-3.31,2.67-4.97,4,4.07-3.26-2.07,1.51-2.82,2.04-3.46,2.45-7.05,4.73-10.82,6.67-1.02.53-2.05,1.02-3.09,1.49,2.62-1.08,2.77-1.18.46-.3-1.66.46-3.26,1.06-4.94,1.47-1.11.27-2.23.5-3.35.7,3.03-.36,3.29-.44.77-.22-1.13.06-2.27.07-3.41.02-2.87-.2-2.27-.1,1.79.29l15.37,15.37-.29-.73v11.7c1.6-7.16,5.22-14.33,7.96-21.12.61-1.47.48-1.16-.38.91.5-1.15,1.01-2.3,1.53-3.45.75-1.66,1.54-3.3,2.33-4.94,1.49-3.06,3.05-6.09,4.52-9.16,3.46-7.2,7-14.71,8.74-22.55,2.68-12.06,3.38-29.16-10.3-35.18-10.5-4.63-24.12-3.43-30.1,7.89-5.04,9.54-3.35,25.15,7.89,30.1l.72.32-7.89-7.89.39.81c-1-3.7-2-7.4-3-11.1.15.87.16,1.75.04,2.63-.23,2.52-.18,2.22.16-.89.48,1.32-1.24,5.13-1.66,6.44-.34,1.05-2.48,8.16-.83,2.59-.62,2.1-1.94,4.2-2.9,6.16-4.55,9.31-8.89,18.6-12.76,28.23-5.26,13.06-13,28.57-.94,40.63,9.65,9.65,27.01,7.77,38.97,4.43,9.74-2.73,19-7.52,27.24-13.34,9.32-6.58,20.54-14,26.65-23.92,5.22-8.48,9.23-18.72,12.19-28.15,3.71-11.84,4.37-24.09,1.63-36.19-2.54-11.24-16.12-18.91-27.06-15.37-11.78,3.81-18.08,15.02-15.37,27.06h0Z"></path><path class="cls-1" d="M330.64,178.48l-4.1-1.67c-2.92-.92-5.85-1.05-8.77-.39-2.93.13-5.65,1-8.18,2.61-2.56,1.38-4.62,3.27-6.17,5.67-1.94,2.12-3.26,4.62-3.94,7.48l-.79,5.85c.01,3.97,1.01,7.67,3,11.1l3.44,4.45c2.75,2.73,5.98,4.61,9.71,5.66l4.1,1.67c2.92.92,5.85,1.05,8.77.39,2.93-.13,5.65-1,8.18-2.61,2.56-1.38,4.62-3.27,6.17-5.67,1.94-2.12,3.26-4.62,3.94-7.48l.79-5.85c-.01-3.97-1.01-7.67-3-11.1l-3.44-4.45c-2.75-2.73-5.98-4.61-9.71-5.66h0Z"></path><path class="cls-1" d="M298.81,192.15c-.26,1.08-.59,2.13-1.01,3.16l2.22-5.26c-.29.68-.61,1.34-.96,1.99-1.61,2.53-2.48,5.25-2.61,8.18-.65,2.92-.52,5.85.39,8.77.68,2.86,1.99,5.36,3.94,7.48,1.55,2.4,3.61,4.28,6.17,5.67l5.26,2.22c3.9,1.05,7.8,1.05,11.7,0l5.26-2.22c3.31-1.96,5.94-4.59,7.89-7.89,1.77-3.26,3.32-6.78,4.18-10.41.92-2.92,1.05-5.85.39-8.77-.13-2.93-1-5.65-2.61-8.18-1.38-2.56-3.27-4.62-5.67-6.17-2.12-1.94-4.62-3.26-7.48-3.94l-5.85-.79c-3.97.01-7.67,1.01-11.1,3l-4.45,3.44c-2.73,2.75-4.61,5.98-5.66,9.71h0Z"></path><path class="cls-1" d="M317.98,181.73l-7.69.1-3.84.05c-3.89-.13-1.6.5,6.85,1.89,2.63,2.63,5.26,5.26,7.89,7.89,1.94,3.51,2.52,7.12,1.74,10.83.24-1.06.51-2.11.84-3.15.48-1.57,1.04-3.1,1.62-4.63,1.34-3.56,2.9-7.07,3.91-10.75,1.66-6.01,2.9-13.05.93-19.09-3.51-10.78-13.65-17.55-24.93-16.03s-20.35,10.25-25,20.16c-3.91,8.32-4.64,17.12-7.69,25.67-3.87,10.85,4.37,24.56,15.37,27.06,12.35,2.81,22.91-3.75,27.06-15.37,1.81-5.07,2.48-10.38,3.85-15.57.25-.96.61-1.89.86-2.85.58-2.27-2.48,3.69-.2.69,1.76-2.32-.3.24-1.02,1.02,1.34-1.29,1.28-1.33-.18-.13-1.21,1.08-2.64,1.79-4.28,2.12h-11.7l.79.27-15.37-15.37c-.29-1.42.83-11.17-.73-5.09-.27,1.05-.59,2.08-.93,3.11-.77,2.33-1.7,4.6-2.59,6.89-2.27,5.85-4.39,12.21-4.28,18.57.19,11.06,7.39,21.97,18.5,24.73,6.57,1.63,13.51,1.04,20.21.95,11.5-.15,22.54-10.01,22-22s-9.67-22.16-22-22h0Z"></path><path class="cls-1" d="M283.93,178.84c-3.64-.15-7.3-.45-10.95-.42-3.12.02-6.34.34-9.35,1.15-7.58,2.03,4.19-1.04,10.39,2.62,2.63,2.63,5.26,5.26,7.89,7.89l-.57-.76c1,3.7,2,7.4,3,11.1-.87,3.5-.91,3.97-.14,1.41l.57-1.56c-1.18,2.69-1.24,2.93-.2.71l.78-1.47c2.82-5.5,5.21-10.84,5.21-17.18,0-14.22-12.38-27.32-27.03-26.27-11.45.81-22.56,9.54-22,22,.5,11.22,9.71,22.87,22,22l-16.5-21.51,1.02-2.54c-.44.15-1.27,2.33-1.48,2.76-1.72,3.41-3.22,6.99-4.52,10.58-3.29,9.04-2.13,20.57,5.3,27.38,6.95,6.38,16.37,8.57,25.47,6.08.39-.11,2.3-.51,2.49-.83-2.65.31-3.14.46-1.47.45.6.01,1.2.03,1.8.06,2.75.1,5.51.22,8.26.33,11.51.46,22.52-10.45,22-22-.55-12.32-9.67-21.5-22-22h0Z"></path><path class="cls-1" d="M256,181.14c-4.01-1.38-8.27-2.01-12.49-2.34-.6-.05-4.55-.52-5.04-.14l6.41,1.73c-1.7-1.09-1.87-1.12-.51-.1,2.54,1.28-1.3-1.15-1.76-1.54-1.17-1-2.33-2-3.5-3-2.56-2.2-5.13-4.39-7.69-6.59-8.73-7.48-22.65-9.22-31.11,0-7.55,8.22-9.33,23.12,0,31.11,6.58,5.64,13.04,12.01,20.28,16.8,5.13,3.39,10.95,5.04,17.06,5.49,1.65.12,3.35.23,5.01.19,1.68.11,1.14.05-1.62-.18,1.11.26,2.2.6,3.27,1,10.89,3.76,24.54-4.29,27.06-15.37,2.79-12.25-3.71-23.04-15.37-27.06h0Z"></path><path class="cls-1" d="M222.98,176.96c-5.99-.68-11.98-1.24-18-1.63-10.8-.7-19.28,3.08-25.43,12.15-7.71,11.37-.17,29.47,13.15,32.32,2.17.47,4.34.93,6.51,1.4l5.85-43.21c-21.75,2.3-43.6,2.98-65.46,2.05-11.51-.49-22.52,10.47-22,22,.55,12.34,9.67,21.47,22,22,21.85.93,43.71.25,65.46-2.05,11.01-1.16,20.05-7.49,21.61-19.08,1.38-10.24-5.01-21.84-15.76-24.14-2.17-.47-4.34-.93-6.51-1.4,4.38,10.77,8.77,21.55,13.15,32.32l.54-.8c-2.63,2.63-5.26,5.26-7.89,7.89-8.02,4.05-10.51,2.18-4.26,2.6,1.9.13,3.79.27,5.69.43,3.79.32,7.58.71,11.36,1.14,11.48,1.31,22.49-11.05,22-22-.58-13.04-9.71-20.6-22-22h0Z"></path></svg> 