<?xml version="1.0" encoding="UTF-8"?> <svg xmlns="http://www.w3.org/2000/svg" id="_Слой_1" data-name="Слой 1" viewBox="0 0 135.14 154.39"><defs><style> .cls-1 { fill: #f1e7e5; } </style></defs><path class="cls-1" d="M129.93,15.95C119.8-1.26,99.5-5.36,84.22,7.69c-11.77,10.06-19.35,24.64-22.34,39.88-5.69-8.38-13.54-14.86-24.52-16.98C19.34,27.11,2.73,38.12.32,56.56c-2.66,20.43,11.75,36.66,25.1,50.15,16.29,16.46,34.33,30.99,52.34,45.5,3.66,2.95,9.86,3.35,12.35-1.59,11.28-22.42,21.71-45.29,31.37-68.45,8.37-20.04,20.82-45.19,8.45-66.22ZM119.76,39.32c-1.6,17.92-11.63,36.18-18.76,52.45-6.32,14.42-13.12,28.6-20.24,42.63-9.81-8.12-19.53-16.33-28.95-24.89-11.26-10.23-24.68-21.38-31.93-34.98-5.89-11.04-4.98-28.53,10.96-28.66,13.95-.12,23.85,13.6,29.6,24.76,2.23,4.33,8.3,3.03,10.07-.57,2.7-.88,4.91-3.18,5.02-6.89.42-15.49,5.91-31.08,17.06-42.17,14.46-14.39,28.62,2.04,27.17,18.32Z"></path><path class="cls-1" d="M121.48,82.17c-9.66,23.16-20.09,46.03-31.37,68.45-2.49,4.94-8.69,4.54-12.35,1.59-18.01-14.51-36.05-29.04-52.34-45.5C12.07,93.22-2.34,76.99.32,56.56c2.41-18.44,19.02-29.45,37.04-25.97,10.98,2.12,18.83,8.6,24.52,16.98,2.99-15.24,10.57-29.82,22.34-39.88,15.28-13.05,35.58-8.95,45.71,8.26,12.37,21.03-.08,46.18-8.45,66.22Z"></path></svg> 