<?xml version="1.0" encoding="UTF-8"?> <svg xmlns="http://www.w3.org/2000/svg" id="_Слой_1" data-name="Слой 1" viewBox="0 0 363.63 489.04"><defs><style> .cls-1 { fill: #ff8939; stroke-width: 0px; } </style></defs><path class="cls-1" d="m93.04,119.7c-6.31-3.46-14.09-4.59-20.35-.34-4.89,3.32-7.81,9.6-6.24,15.44,1.67,6.21,7.23,10.9,13.2,12.83,7.44,2.41,15,.08,21.59-3.61,3.59-2.02,1.13-8.49-2.89-6.85-7.47,3.04-16.14,6.64-22.5-.82-2.71-3.18-2.88-7.21.42-10.13,3.72-3.29,9.03-2.24,13-.1,4.21,2.27,7.97-4.12,3.76-6.43h0Z"></path><path class="cls-1" d="m236.59,82.62c1.28-4.18,3.06-9.31,8.41-8.93,3.8.27,6.6,3.39,7.58,6.89,1.04,3.71.09,8.17-3.21,10.47-3.49,2.43-7.88.82-11.79.94-5.09.15-5.07,7.66,0,7.9,7.53.35,14.23,1.06,19.49-5.41,4.4-5.42,4.83-13.29,1.67-19.42-3.01-5.84-9.11-9.66-15.76-8.93-8.02.88-11.54,7.49-13.62,14.49-1.38,4.64,5.82,6.6,7.23,1.99h0Z"></path><path class="cls-1" d="m105.22,54.53c-7.21-2.78-14.42-5.57-21.62-8.35-3.6-1.39-7.21-2.78-10.81-4.17-3.03-1.17-6.98-2.01-9.48-4.17-4.12-3.56,3.78-14.01,6.26-17.65,3.55-5.21,7.99-9.82,14.04-11.98-1.54-.87-3.08-1.75-4.62-2.62,3.2,19.38,13.25,36.82,21.2,54.52,1.97,4.38,8.4.58,6.45-3.77-7.7-17.15-17.36-33.96-20.4-52.74-.31-1.91-2.86-3.24-4.62-2.62-7.54,2.66-13.12,7.74-17.72,14.18-2.47,3.45-4.56,7.16-6.54,10.91-1.76,3.34-3.84,6.95-3.16,10.87,1.38,7.96,11.13,10.28,17.5,12.72,10.52,4.03,21.04,8.06,31.56,12.08,4.49,1.72,6.42-5.48,1.98-7.19h0Z"></path><path class="cls-1" d="m214.32,47.24c6.49-13.76,11.87-27.98,16.05-42.61-2.08.55-4.16,1.1-6.24,1.65,4.59,3.72,9.18,7.43,13.77,11.14,2.04,1.65,4.08,3.3,6.12,4.95,2.13,1.72,5.91,3.79,7.15,6.34-.13-.96-.25-1.93-.38-2.89-.38,2.57-6.18,5.88-8.1,7.3-2.8,2.07-5.7,4.01-8.68,5.83-5.99,3.66-12.28,6.5-18.7,9.3-3.85,1.68-1.1,8.27,2.88,6.83,7.38-2.67,14.47-6.37,21.1-10.55,5.66-3.57,12.57-7.8,16.95-12.94,4.88-5.72-1.11-9.84-5.39-13.29-7.15-5.77-14.3-11.53-21.45-17.29-2.13-1.71-5.42-1.27-6.24,1.65-3.96,14.03-9.01,27.67-15.22,40.87-2.01,4.27,4.34,8.02,6.37,3.72h0Z"></path><path class="cls-1" d="m123.86,188.89c-23.73,19.63-45.61,41.15-67.56,62.7-3.47,3.4,1.89,8.76,5.33,5.33,21.77-21.7,43.82-43.13,67.46-62.8,3.67-3.05-1.59-8.25-5.23-5.23h0Z"></path><path class="cls-1" d="m57.63,251.01c-14.28-2.45-32.32-8.29-46.2-1.62-10.33,4.96-16.42,18.29-6.09,26.66,9.55,7.75,24.62,6.21,35.32,2.06,10.99-4.26,21.78-12.75,25.58-24.3,1.3-3.94-4.89-6.63-6.76-2.85-4.03,8.13-9.47,14.25-17.69,18.39-8.15,4.1-18.77,6.24-27.56,3.01-4.08-1.5-8.1-4.79-6.19-9.55,1.87-4.66,7.14-7.21,11.79-8.06,11.57-2.12,24.37,1.65,35.78,3.57,4.77.8,6.83-6.49,2.02-7.32h0Z"></path><path class="cls-1" d="m214.34,192.13c29.16,15.59,62.8,19.58,91.97,35.09,4.3,2.29,8.13-4.25,3.82-6.54-29.22-15.49-62.89-19.41-92.07-34.93-4.19-2.23-7.92,4.13-3.73,6.37h0Z"></path><path class="cls-1" d="m305.16,228.47c3.32,10.38,18.12,13.79,27.53,15.35,10.1,1.68,24.29-.31,29.57-10.47,4.9-9.42-4.15-18.15-12.86-20.22-6.08-1.45-12.43-.58-18.47.57-7.45,1.42-14.86,3.12-22.28,4.69-4.91,1.04-2.83,8.56,2.07,7.52,8.59-1.82,17.22-4.14,25.92-5.38,5.02-.71,21.63-.51,19,8.61-2.36,8.19-16.36,8.22-22.72,7.03-5.67-1.06-18.48-3.3-20.55-9.7-1.48-4.55-8.67-2.62-7.2,1.99h0Z"></path><path class="cls-1" d="m143.69,356.67c-6.44,35.22-14.02,70.22-22.85,104.91l4.68-2.65c-12.32-3.25-25.76-2.8-37.65,1.94-7.9,3.15-22.89,12.97-13.49,22.69,7.65,7.9,22.87,5.97,31.99,2.25,9.84-4.01,17.43-11.66,21.25-21.57,1.78-4.61-5.64-6.61-7.4-2.04-2.6,6.75-7.88,12.15-14.28,15.42-6.65,3.4-16.96,5.5-23.99,1.95-9.48-4.79,11.61-12.73,15.28-13.62,8.64-2.09,17.68-1.91,26.27.3,1.95.5,4.17-.63,4.68-2.65,8.72-34.73,16.29-69.74,22.55-105,.81-4.58-6.19-6.56-7.03-1.94h0Z"></path><path class="cls-1" d="m210.18,355.66c2.87,18.87,5.75,37.74,8.64,56.61,1.5,9.76,2.99,19.52,4.49,29.27,1.22,7.96,1.76,16.5,5.27,23.87,6.32,13.3,24.31,20.16,38.06,21.6,6.83.71,14.8-.44,19.91-5.48,4.42-4.36,4.53-10.71.63-15.45-5.15-6.26-13.73-7.97-21.39-8.66-10.17-.91-20.43-.22-30.5,1.27-4.93.73-2.84,8.22,2.07,7.5,9.1-1.34,18.41-1.78,27.59-1.13,4.4.31,9.26.89,13.16,3.15,3.95,2.29,6.17,6,1.74,9.08-7.25,5.04-18.02,1.72-25.5-1.02-7.36-2.69-15.32-6.54-18.98-13.88-3.69-7.39-3.93-16.74-5.16-24.78-1.4-9.11-2.8-18.21-4.2-27.32-2.9-18.86-5.81-37.72-8.73-56.59-.72-4.68-7.82-2.69-7.11,1.96h0Z"></path><path class="cls-1" d="m145.83,32.35c-6.35,4.11-9.6,10.57-12.03,17.53-3.07,8.79-6,18.04-5.83,27.44.09,4.76,6.96,4.65,7.32,0,.61-7.8,2.53-15.14,4.94-22.56,1.92-5.89,3.94-12.39,9.39-15.94,4.03-2.63.29-9.12-3.79-6.48h0Z"></path><path class="cls-1" d="m139.91,41.78c5.62,8.48,8.1,17.56,8.72,27.64.28,4.66,7.15,4.73,7.3,0,.36-11.12-3.46-22.21-9.61-31.38-2.64-3.94-9.05-.26-6.4,3.74h0Z"></path><path class="cls-1" d="m145.35,40.83c11.01,3.8,18.93,11.09,25.44,20.53,2.65,3.85,8.52.52,6.31-3.69-6.06-11.57-17.61-19.88-29.77-24.02-4.55-1.55-6.48,5.62-1.98,7.18h0Z"></path><path class="cls-1" d="m137.14,106.33c4.54,0,4.55-7.06,0-7.06s-4.55,7.06,0,7.06h0Z"></path><path class="cls-1" d="m182.3,93.89c4.54,0,4.55-7.06,0-7.06s-4.55,7.06,0,7.06h0Z"></path><path class="cls-1" d="m162.9,113.07c.24.34.48.69.72,1.03.38.54.74,1.17,1.22,1.62.58.55,1.26.88,2.06.98.76.1,1.62,0,2.28-.42.52-.33.95-.77,1.28-1.28.43-.67.68-1.99.36-2.76-.18-.42-.33-.86-.58-1.24-.12-.18-.25-.37-.37-.55-.23-.35-.47-.69-.7-1.04-.53-.79-1.23-1.41-2.17-1.67-.87-.24-2.02-.13-2.79.37-.77.5-1.46,1.24-1.67,2.17-.21.91-.19,2,.37,2.79h0Z"></path><path class="cls-1" d="m152.55,137.86c11.37,12.74,36.26,3.1,38.54-13.13.66-4.72-6.57-6.76-7.24-1.99-1.49,10.64-18.22,18.69-26.13,9.95-3.17-3.5-8.3,1.67-5.17,5.18h0Z"></path><path class="cls-1" d="m136.46,170.94c-32.15,53.48-53.03,113.11-59.61,175.24-.22,2.11,1.91,3.65,3.76,3.76,24.07,1.45,48.22,1.92,72.33,2.69,32.72,1.04,65.45,1.98,98.18,2.56,10.74.19,21.52.52,32.26.19,2.06-.06,3.89-1.71,3.86-3.86-.84-52.84-20.71-104.62-52-146.86-9.61-12.98-20.28-25.12-31.96-36.27-3.57-3.41-9,1.99-5.43,5.43,47.97,46.13,80.58,110.44,81.68,177.7l3.86-3.86c-23.98.75-48.12-.42-72.09-1-32.75-.8-65.5-1.72-98.24-2.89-10.81-.39-21.63-.71-32.43-1.36,1.25,1.25,2.51,2.51,3.76,3.76,6.43-60.77,27.16-119.16,58.46-171.51,2.44-4.09-3.93-7.8-6.37-3.73h0Z"></path><path class="cls-1" d="m137.12,32.47c-26.62,10.36-44.8,36.06-47.54,64.29-2.83,29.27,14.22,56.46,39.89,69.81,26.71,13.89,58.21,10.71,80.94-9.25,22.75-19.98,33.24-53.45,21.38-82.04-7.27-17.54-23.5-30.55-40.08-38.96-16.56-8.41-36.01-12.23-53.65-4.83-4.3,1.8-2.41,8.92,1.95,7.09,14.12-5.92,29.58-3.66,43.29,2.4,13.62,6.03,27.54,15.48,36.12,27.87,16.33,23.6,10.24,55.98-8.11,76.51-17.69,19.79-44.2,27.16-69.34,18.23-24.12-8.56-43.5-30.73-44.92-56.8-1.54-28.09,15.59-56.79,42.04-67.17,4.39-1.72,2.49-8.89-1.97-7.15h0Z"></path><path class="cls-1" d="m147.96,38.03c-18.47,14.41-36.03,29.87-52.62,46.4h5.49c-2.13-1.97-.42-7.57.12-10.03.76-3.44,1.83-6.85,3.24-10.08,2.59-5.94,6.18-11.49,10.46-16.34,9.75-11.06,22.74-18.77,37.04-22.29,28.92-7.12,61.84,5.89,71.66,35.52,1.29-1.7,2.58-3.39,3.88-5.09-17.01-.21-32.92-6.24-48.85-11.53-7.66-2.55-15.56-5.28-23.58-6.36-7.95-1.07-13.94,1.84-19.99,6.75-12.83,10.4-23.11,23.47-34.11,35.68-1.38,1.53-2.77,3.05-4.18,4.56-.57.6-1.16,1.43-1.82,1.92-.04.03.29,4.23-.15-.59-.35-3.84-.09-7.74.7-11.51,1.62-7.66,5.31-14.9,10.23-20.97,11.47-14.19,28.74-21.73,45.69-27.18,4.94-1.59,2.85-9.37-2.15-7.81-16.31,5.1-32.68,12.24-44.97,24.47-11.51,11.45-19.54,28.06-17.49,44.59.87,7.02,6.95,10.73,12.87,5.77,7-5.87,12.71-13.9,18.75-20.73,6.23-7.04,12.61-13.97,19.73-20.13,3.48-3.01,7.22-6.36,11.98-6.84,5.27-.53,11.06,1.62,16.07,3.08,20.25,5.89,39.84,14.69,61.28,14.89,2.51.02,4.7-2.6,3.88-5.09-8.58-25.82-33.41-42.4-60.23-43.24-27.18-.85-54.35,13.21-68.93,36.23-3.79,5.99-6.7,12.66-8.32,19.57-1.35,5.75-3.22,13.75,1.71,18.29,1.54,1.42,3.96,1.53,5.49,0,16.57-16.52,34.05-32.1,52.4-46.61,3.78-2.99-1.54-8.19-5.28-5.28h0Z"></path><path class="cls-1" d="m107.59,67.91c9.72-15.09,24.36-27.55,41.41-33.57,19.26-6.8,40.99,2.83,57.17,13.32,1.39-2.38,2.78-4.76,4.17-7.14-13.86-7.68-29.46-11.43-45.3-10.54-4.64.26-5.6,6.64-1.1,8.1,14.31,4.66,28.12,10.61,41.41,17.66,4.66,2.47,8.6-4.25,4.13-7.07-4.48-2.83-9.29-4.76-14.5-5.77-5.12-.99-7.35,6.56-2.18,7.91,7.41,1.94,14.82,3.87,22.23,5.81,5.09,1.33,7.26-6.54,2.17-7.88-7.41-1.94-14.81-3.89-22.22-5.83-.73,2.64-1.45,5.27-2.18,7.91,4.56.88,8.61,2.45,12.54,4.93,1.38-2.36,2.76-4.72,4.13-7.07-13.94-7.37-28.42-13.49-43.36-18.54-.37,2.7-.73,5.4-1.1,8.1,14.47-.69,28.44,2.41,41.13,9.43,4.68,2.59,8.63-4.25,4.17-7.14-18.05-11.7-42.11-21.56-63.47-13.88-18.97,6.82-35.02,20.56-45.77,37.48-2.6,4.1,3.88,7.84,6.49,3.79h0Z"></path><path class="cls-1" d="m222.05,44.51c-3.93-5.11-10.45-10.67-17.32-10.58-3.38.05-5.46,5.41-1.87,6.92,2.49,1.06,5.12,1.51,7.49,2.88,2.34,1.34,4.27,3.11,5.94,5.23,2.55,3.24,8.31-1.14,5.77-4.45h0Z"></path><path class="cls-1" d="m89.49,33.26c-3.62-.93-7.23-1.86-10.84-2.82-4.41-1.17-6.47,4.62-2.98,7.07,3.24,2.27,6.01,4.97,8.33,8.18l5.37-5.37c-4.91-2.35-9.94-4.26-15.18-5.72-3.76-1.04-6.76,3.87-3.86,6.63,3.63,3.45,7.76,5.82,12.59,7.14,3.83,1.05,6.71-3.85,3.88-6.66-3.61-3.59-7.73-6.49-12.43-8.48-.97-.41-2.37-1.33-3.4-1.29-1.45-.63-1.22.07.69,2.11l.43-1.47c1.87-2.87,2.63-6.07,4.9-8.85-2.22-.59-4.44-1.17-6.66-1.76,1.11,8.16,8.77,15.48,14.02,21.38,2.9,3.27,8.83-1.15,6.15-4.74-4.21-5.63-11.5-11.52-12.48-18.76-.39-2.88-4.89-3.93-6.66-1.76-3.24,3.97-9.89,12.78-7.09,18.29,1.35,2.65,4.13,2.94,6.65,3.97,3.9,1.59,7.28,4.03,10.25,6.99,1.29-2.22,2.58-4.44,3.88-6.66-3.55-.97-6.42-2.54-9.1-5.07-1.29,2.21-2.57,4.42-3.86,6.63,4.59,1.26,9.01,2.84,13.33,4.84,3.14,1.45,7.95-1.86,5.37-5.37-3.18-4.31-6.78-7.85-11.2-10.89-.99,2.36-1.99,4.71-2.98,7.07,3.63.89,7.25,1.81,10.87,2.73,4.77,1.21,6.8-6.14,2.03-7.37h0Z"></path><path class="cls-1" d="m215.86,48.13c7.02-7.02,11.79-15.69,13.82-25.42h-7.39c1.98,5.49,1.73,11.03,1.29,16.75-.34,4.41,6.68,5.31,7.69,1.04,1.55-6.56,2.28-13.18,2.19-19.92-2.24.93-4.48,1.85-6.72,2.78,4.19,3.68,6.36,8.84,11.19,11.9,2.33,1.48,6.28-.41,5.93-3.4-.59-5.08-1.87-9.7-4.01-14.35-2.27,1.33-4.54,2.65-6.81,3.98,2.42,3.35,6.58,9.68,11.51,7.89,5.36-1.94,3.73-7.88.79-11.05-1.41-1.52-4.17-1.52-5.58,0-1.49,1.6-3.25,6.77-5.29,7.15-4.26.79-3.26,7.66,1.02,7.52,2.39-.08,4.1-.68,5.82-2.41,1.91-1.92,2.22-4.74,4.03-6.68h-5.58c.38.6.75,1.19,1.13,1.79-.13-1.01-.27-2.03-.4-3.04.34-.23.68-.46,1.02-.69l3.04.4c-1.91-1.13-3.42-3.1-4.7-4.87-2.98-4.12-8.94-.66-6.81,3.98,1.52,3.3,2.51,6.76,2.94,10.37,1.98-1.13,3.95-2.27,5.93-3.4-4.06-2.57-6.01-7.51-9.6-10.66-2.47-2.17-6.76-.8-6.72,2.78.08,6.05-.54,11.94-1.88,17.84,2.56.35,5.13.69,7.69,1.04.43-6.4.54-12.7-1.73-18.79-1.2-3.22-6.59-4.05-7.39,0-1.7,8.57-5.54,15.98-11.7,22.19-3.38,3.41,1.87,8.66,5.27,5.27h0Z"></path><path class="cls-1" d="m179.08,47.88c16.1,11.19,33,20.9,50.9,28.93,3.1,1.39,6.58-.89,5.77-4.44-3.14-13.85-11.12-27.16-23.64-34.38-4.3-2.48-7.69,3.73-3.82,6.53,10.3,7.42,17.05,17.57,19.87,29.94l5.77-4.44c-17.83-7.98-35.03-17.46-51.13-28.53-3.94-2.7-7.61,3.69-3.73,6.38h0Z"></path><path class="cls-1" d="m101.9,74.22c-4.96,7.83-9.38,15.82-13.12,24.31,1.78-.47,3.55-.93,5.33-1.4-3.32-1.56-3.21-9.5-3.32-12.51-.14-4.05.2-8.08,1.07-12.04,1.82-8.32,5.65-15.71,11.15-22.18,3.2-3.77-2.09-9.23-5.5-5.5-7.57,8.29-12.39,18.83-13.95,29.93-1.11,7.9-2.29,24.92,6.62,29.03,1.73.8,4.43.67,5.33-1.4,3.67-8.45,7.85-16.72,12.72-24.55,2.5-4.02-3.81-7.67-6.33-3.7h0Z"></path><path class="cls-1" d="m119.79,57.84c-4.32,11.26-13.57,19.57-20.61,29.1-7,9.48-11.64,20.3-9.83,32.22,2.41-1.01,4.81-2.03,7.22-3.04-9.1-18.42-7.1-37.68.99-55.94,1.89-4.26-3.69-7.74-6.34-3.71-12.15,18.45-10.93,44.45-1.46,63.63,2.14,4.35,7.83,1.02,7.22-3.04-1.84-12.17,6.29-23,13.51-31.89,6.44-7.93,12.74-15.7,16.35-25.38,1.65-4.42-5.37-6.28-7.04-1.94h0Z"></path></svg> 