<?xml version="1.0" encoding="UTF-8"?> <svg xmlns="http://www.w3.org/2000/svg" id="_Слой_1" data-name="Слой 1" viewBox="0 0 71.41 71.4"><defs><style> .cls-1 { fill: #ff8939; stroke: #ff8939; stroke-miterlimit: 10; stroke-width: 4px; } </style></defs><path class="cls-1" d="M3.44,37.71c10.8-.22,21.59-.47,32.39-.73,10.78-.26,21.61-.24,32.38-.85,1.77-.1,1.48-2.69-.23-2.7-10.79-.09-21.61.45-32.39.72-10.79.26-21.59.53-32.38.84-1.77.05-1.51,2.76.23,2.72h0Z"></path><path class="cls-1" d="M36.33,68.03c.24-10.8.45-21.59.65-32.39.2-10.78.68-21.6.53-32.38-.03-1.78-2.63-1.59-2.71.12-.55,10.77-.46,21.61-.66,32.39-.2,10.79-.38,21.59-.54,32.38-.03,1.77,2.69,1.63,2.73-.12h0Z"></path></svg> 