<?xml version="1.0" encoding="UTF-8"?> <svg xmlns="http://www.w3.org/2000/svg" id="_Слой_1" data-name="Слой 1" viewBox="0 0 257.75 224.5"><defs><style> .cls-1 { fill: #f4d848; } .cls-1, .cls-2, .cls-3, .cls-4 { stroke-width: 0px; } .cls-2 { fill: #f7472f; } .cls-3 { fill: #ff8939; } .cls-4 { fill: #ef92ad; } </style></defs><path class="cls-1" d="m95.67,210.65c1-9.78.3-19.62,1.56-29.4,1.17-9.04,3.37-18.06,6.53-26.61,5.37-14.54,16.03-29.74,32.99-30.45,17-.72,23.34,15.02,24.39,29.48,1.39,19.18-.64,39.1-3.54,58.05-.97,6.33,8.72,9.05,9.69,2.67,2.76-18.14,4.45-36.58,4.09-54.95-.25-13.08-2.38-28.07-12.59-37.36-10.66-9.71-26.36-9.61-38.72-3.32-13.46,6.86-21.44,21.05-26.23,34.8-3.12,8.95-5.03,18.28-6.11,27.69-1.13,9.88-1.67,20.7,1.38,30.29,1.19,3.74,6.18,2.79,6.56-.89h0Z"></path><path class="cls-3" d="m66.82,215.46c.52-11.75.69-23.42,2.7-35.05,1.91-11.04,4.9-21.91,9.03-32.32,7.3-18.42,18.79-36.53,35.79-47.36,15.56-9.91,36.85-13.02,53.44-3.65,16.49,9.32,22.54,28.44,24.01,46.26,1.99,24.16-1.34,49.18-4.65,73.08-.85,6.11,8.5,8.76,9.37,2.58,3.4-24.31,6.86-49.61,5.06-74.2-1.44-19.61-7.27-39.94-23.56-52.35-16.76-12.76-40.22-13.01-59.02-4.83-20.37,8.86-35.17,27.38-44.54,47.02-11.73,24.58-18.73,54.51-14.08,81.71.65,3.8,6.3,2.66,6.46-.87h0Z"></path><path class="cls-4" d="m246.31,216.09c8.99-39.82,16.18-82.57,7.55-123.08-6.87-32.24-24.62-63.99-54-80.61-31.15-17.62-70.28-15.37-101.86-.1-31.42,15.19-55.09,43.69-70.05,74.67C8.04,128.22,2.67,174.36.01,219.56c-.39,6.61,9.89,6.58,10.27,0C14.34,151.11,27.08,70.74,88.87,29.46c27.27-18.21,62.92-25.06,94.19-13.58,30.31,11.11,49.94,39.41,58.73,69.44,12.41,42.37,3.44,86.17-3.04,128.69-.74,4.86,6.42,7.11,7.56,2.08h0Z"></path><path class="cls-2" d="m33.76,217.65c4.17-31.98,9.41-63.12,21.03-93.4,9.97-25.97,24.85-51.95,48.43-67.79,22.36-15.02,51.6-20.49,76-6.97,21.67,12.01,35.69,34.97,41.63,58.51,9.11,36.05.42,74.03-7.42,109.46-1.31,5.91,7.78,8.44,9.09,2.51,7.72-34.86,15.51-70.99,9.05-106.72-4.73-26.15-18.73-51.67-40.62-67.24-23.57-16.76-53.51-16.74-79.17-4.79-27.8,12.95-47.03,38.56-59.44,65.89-7.58,16.69-13.32,34.24-17.65,52.04-4.61,18.98-8.1,38.92-8.1,58.5,0,4.74,6.58,4.42,7.15,0h0Z"></path></svg> 