<?xml version="1.0" encoding="UTF-8"?> <svg xmlns="http://www.w3.org/2000/svg" id="_Слой_1" data-name="Слой 1" viewBox="0 0 82.38 122.07"><defs><style> .cls-1 { fill: #f4d848; } </style></defs><path class="cls-1" d="M9.54,67.15C26.74,50.16,39.36,28.09,47.74,5.55h-8.6c4.82,23.98,18.06,45.11,35.55,61.94v-6.38c-17.42,15.19-31.53,33.75-39.89,55.39,2.96.4,5.92.8,8.87,1.2-2.07-24.86-17-45.26-36.88-59.45.31,2.39.61,4.77.92,7.16,13.93-16.86,28-33.63,41.62-50.74,3.56-4.47-2.59-10.9-6.4-6.4C28.81,24.94,15.09,42.01,1.27,58.95c-1.96,2.4-1.65,5.34.92,7.16,17.12,12.07,30.66,30.21,32.44,51.58.43,5.19,7.02,6,8.87,1.2,7.79-20.16,21.39-37.28,37.56-51.4,1.81-1.58,1.67-4.78,0-6.38-16.49-15.84-28.68-35.38-33.33-57.92-.96-4.67-7.22-3.78-8.6,0C31.03,25.34,18,44.11,4.02,62.89c-2.43,3.26,2.76,6.99,5.52,4.26h0Z"></path></svg> 