<?xml version="1.0" encoding="UTF-8"?> <svg xmlns="http://www.w3.org/2000/svg" id="_Слой_1" data-name="Слой 1" viewBox="0 0 377.28 108.83"><defs><style> .cls-1 { fill: #f4d848; } </style></defs><path class="cls-1" d="M.07,17.54c-1.06,31.58,9.37,63.08,28.23,88.34,2.17,2.91,6.16,2.46,7.47-.98,10.14-26.62,19.66-53.48,29.48-80.22-2.59.34-5.17.68-7.76,1.01,13.07,27.02,26.18,54.02,39.27,81.02,1.51,3.12,5.77,2.46,7.44,0,15.21-22.36,28.61-45.86,40.1-70.34h-7.54c14.73,21.25,27.09,44.06,36.65,68.09,1.27,3.18,6.15,4.75,8.02,1.05,13.36-26.46,27.36-52.6,41.98-78.38h-7.64c12.03,23.29,20.92,47.95,26.64,73.52.79,3.51,6.58,4.6,8.14,1.06,10.18-23.02,22.41-45.03,36.59-65.83-2.72-.36-5.44-.71-8.16-1.07,9.31,23.01,18.61,46.02,27.92,69.02,1.42,3.5,6,4.57,8.2,1.07,20.73-32.98,41.99-65.71,61.59-99.37,2.48-4.25-3.83-7.82-6.53-3.82-21.82,32.29-42.08,65.66-62.8,98.66,2.73.36,5.47.71,8.2,1.07-9.32-23-18.64-46.01-27.96-69.01-1.46-3.6-5.87-4.43-8.16-1.07-14.18,20.8-26.41,42.81-36.58,65.84,2.71.35,5.43.71,8.14,1.06-5.9-26.3-15.21-51.68-27.6-75.62-1.53-2.96-6.06-2.79-7.64,0-14.6,25.8-28.58,51.95-41.93,78.42,2.67.35,5.35.7,8.02,1.05-9.86-24.76-22.37-48.27-37.58-70.16-1.69-2.43-6.03-3.21-7.54,0-11.46,24.49-24.82,48.02-40.01,70.4h7.44c-13.13-26.99-26.23-53.98-39.38-80.96-1.74-3.56-6.62-2.12-7.76,1.01-9.73,26.76-19.77,53.43-29.18,80.3,2.28-.6,4.55-1.2,6.83-1.8C16.05,77.12,6.45,47.68,5.94,17.54c-.06-3.78-5.74-3.78-5.87,0H.07Z"></path></svg> 